<?xml version="1.0" encoding="UTF-8" standalone="no"?>
<svg
   width="32in"
   height="18.892126in"
   viewBox="0 0 812.80001 479.86002"
   version="1.1"
   id="svg233"
   sodipodi:docname="finalHingeBox.svg"
   inkscape:version="1.2.2 (732a01da63, 2022-12-09)"
   xmlns:inkscape="http://www.inkscape.org/namespaces/inkscape"
   xmlns:sodipodi="http://sodipodi.sourceforge.net/DTD/sodipodi-0.dtd"
   xmlns="http://www.w3.org/2000/svg"
   xmlns:svg="http://www.w3.org/2000/svg"
   xmlns:rdf="http://www.w3.org/1999/02/22-rdf-syntax-ns#"
   xmlns:cc="http://creativecommons.org/ns#"
   xmlns:dc="http://purl.org/dc/elements/1.1/">
  <defs
     id="defs237" />
  <sodipodi:namedview
     id="namedview235"
     pagecolor="#ffffff"
     bordercolor="#000000"
     borderopacity="0.25"
     inkscape:showpageshadow="2"
     inkscape:pageopacity="0.0"
     inkscape:pagecheckerboard="0"
     inkscape:deskcolor="#d1d1d1"
     inkscape:document-units="mm"
     showgrid="false"
     inkscape:zoom="1"
     inkscape:cx="379.5"
     inkscape:cy="1230"
     inkscape:window-width="1920"
     inkscape:window-height="1009"
     inkscape:window-x="1912"
     inkscape:window-y="-8"
     inkscape:window-maximized="1"
     inkscape:current-layer="svg233" />
  <!--
IntegratedHingeBox - Box with lid and integraded hinge

Created with Boxes.py (https://festi.info/boxes.py)
Creation date: 2023-04-24 12:19:16
Command line (remove spaces between dashes): boxes IntegratedHingeBox - -ChestHinge_finger_joints_on_box=0 - -ChestHinge_finger_joints_on_box=1 - -ChestHinge_finger_joints_on_lid=0 - -ChestHinge_finger_joints_on_lid=1 - -x=121 - -y=165 - -h=28 - -outside=0 - -lidheight=10 - -thickness=3.175 - -labels=0
Url: http://www.festi.info/boxes.py/IntegratedHingeBox?FingerJoint_angle=90.0&FingerJoint_style=rectangular&FingerJoint_surroundingspaces=2.0&FingerJoint_bottom_lip=0.0&FingerJoint_edge_width=1.0&FingerJoint_extra_length=0.0&FingerJoint_finger=2.0&FingerJoint_play=0.0&FingerJoint_space=2.0&FingerJoint_width=1.0&ChestHinge_finger_joints_on_box=0&ChestHinge_finger_joints_on_box=1&ChestHinge_finger_joints_on_lid=0&ChestHinge_finger_joints_on_lid=1&ChestHinge_hinge_strength=1.0&ChestHinge_pin_height=2.0&ChestHinge_play=0.1&x=121&y=165&h=28&outside=0&lidheight=10&thickness=3.175&format=svg&tabs=0.0&qr_code=0&debug=0&labels=0&reference=100&inner_corners=loop&burn=0.1&language=en&render=2
Url short: http://www.festi.info/boxes.py/IntegratedHingeBox?ChestHinge_finger_joints_on_box=0&ChestHinge_finger_joints_on_box=1&ChestHinge_finger_joints_on_lid=0&ChestHinge_finger_joints_on_lid=1&x=121&y=165&h=28&outside=0&lidheight=10&thickness=3.175&labels=0
SettingsUrl: http://www.festi.info/boxes.py/IntegratedHingeBox?FingerJoint_angle=90.0&FingerJoint_style=rectangular&FingerJoint_surroundingspaces=2.0&FingerJoint_bottom_lip=0.0&FingerJoint_edge_width=1.0&FingerJoint_extra_length=0.0&FingerJoint_finger=2.0&FingerJoint_play=0.0&FingerJoint_space=2.0&FingerJoint_width=1.0&ChestHinge_finger_joints_on_box=0&ChestHinge_finger_joints_on_box=1&ChestHinge_finger_joints_on_lid=0&ChestHinge_finger_joints_on_lid=1&ChestHinge_hinge_strength=1.0&ChestHinge_pin_height=2.0&ChestHinge_play=0.1&x=121&y=165&h=28&outside=0&lidheight=10&thickness=3.175&format=svg&tabs=0.0&qr_code=0&debug=0&labels=0&reference=100&inner_corners=loop&burn=0.1&language=en&render=2
SettingsUrl short: http://www.festi.info/boxes.py/IntegratedHingeBox?ChestHinge_finger_joints_on_box=0&ChestHinge_finger_joints_on_box=1&ChestHinge_finger_joints_on_lid=0&ChestHinge_finger_joints_on_lid=1&x=121&y=165&h=28&outside=0&lidheight=10&thickness=3.175&labels=0
-->
  <title
     id="title186">IntegratedHingeBox</title>
  <metadata
     id="metadata188">
    <rdf:RDF>
      <cc:Work>
        <dc:title>IntegratedHingeBox</dc:title>
        <dc:date>2023-04-24 12:19:16</dc:date>
        <dc:source>http://www.festi.info/boxes.py/IntegratedHingeBox?FingerJoint_angle=90.0&amp;FingerJoint_style=rectangular&amp;FingerJoint_surroundingspaces=2.0&amp;FingerJoint_bottom_lip=0.0&amp;FingerJoint_edge_width=1.0&amp;FingerJoint_extra_length=0.0&amp;FingerJoint_finger=2.0&amp;FingerJoint_play=0.0&amp;FingerJoint_space=2.0&amp;FingerJoint_width=1.0&amp;ChestHinge_finger_joints_on_box=0&amp;ChestHinge_finger_joints_on_box=1&amp;ChestHinge_finger_joints_on_lid=0&amp;ChestHinge_finger_joints_on_lid=1&amp;ChestHinge_hinge_strength=1.0&amp;ChestHinge_pin_height=2.0&amp;ChestHinge_play=0.1&amp;x=121&amp;y=165&amp;h=28&amp;outside=0&amp;lidheight=10&amp;thickness=3.175&amp;format=svg&amp;tabs=0.0&amp;qr_code=0&amp;debug=0&amp;labels=0&amp;reference=100&amp;inner_corners=loop&amp;burn=0.1&amp;language=en&amp;render=2</dc:source>
        <dc:source>http://www.festi.info/boxes.py/IntegratedHingeBox?ChestHinge_finger_joints_on_box=0&amp;ChestHinge_finger_joints_on_box=1&amp;ChestHinge_finger_joints_on_lid=0&amp;ChestHinge_finger_joints_on_lid=1&amp;x=121&amp;y=165&amp;h=28&amp;outside=0&amp;lidheight=10&amp;thickness=3.175&amp;labels=0</dc:source>
        <dc:description>Box with lid and integraded hinge

Created with Boxes.py (https://festi.info/boxes.py)
Command line: boxes IntegratedHingeBox --FingerJoint_angle=90.0 --FingerJoint_style=rectangular --FingerJoint_surroundingspaces=2.0 --FingerJoint_bottom_lip=0.0 --FingerJoint_edge_width=1.0 --FingerJoint_extra_length=0.0 --FingerJoint_finger=2.0 --FingerJoint_play=0.0 --FingerJoint_space=2.0 --FingerJoint_width=1.0 --ChestHinge_finger_joints_on_box=0 --ChestHinge_finger_joints_on_box=1 --ChestHinge_finger_joints_on_lid=0 --ChestHinge_finger_joints_on_lid=1 --ChestHinge_hinge_strength=1.0 --ChestHinge_pin_height=2.0 --ChestHinge_play=0.1 --x=121 --y=165 --h=28 --outside=0 --lidheight=10 --thickness=3.175 --format=svg --tabs=0.0 --qr_code=0 --debug=0 --labels=0 --reference=100 --inner_corners=loop --burn=0.1
Command line short: boxes IntegratedHingeBox --ChestHinge_finger_joints_on_box=0 --ChestHinge_finger_joints_on_box=1 --ChestHinge_finger_joints_on_lid=0 --ChestHinge_finger_joints_on_lid=1 --x=121 --y=165 --h=28 --outside=0 --lidheight=10 --thickness=3.175 --labels=0
Url: http://www.festi.info/boxes.py/IntegratedHingeBox?FingerJoint_angle=90.0&amp;FingerJoint_style=rectangular&amp;FingerJoint_surroundingspaces=2.0&amp;FingerJoint_bottom_lip=0.0&amp;FingerJoint_edge_width=1.0&amp;FingerJoint_extra_length=0.0&amp;FingerJoint_finger=2.0&amp;FingerJoint_play=0.0&amp;FingerJoint_space=2.0&amp;FingerJoint_width=1.0&amp;ChestHinge_finger_joints_on_box=0&amp;ChestHinge_finger_joints_on_box=1&amp;ChestHinge_finger_joints_on_lid=0&amp;ChestHinge_finger_joints_on_lid=1&amp;ChestHinge_hinge_strength=1.0&amp;ChestHinge_pin_height=2.0&amp;ChestHinge_play=0.1&amp;x=121&amp;y=165&amp;h=28&amp;outside=0&amp;lidheight=10&amp;thickness=3.175&amp;format=svg&amp;tabs=0.0&amp;qr_code=0&amp;debug=0&amp;labels=0&amp;reference=100&amp;inner_corners=loop&amp;burn=0.1&amp;language=en&amp;render=2
Url short: http://www.festi.info/boxes.py/IntegratedHingeBox?ChestHinge_finger_joints_on_box=0&amp;ChestHinge_finger_joints_on_box=1&amp;ChestHinge_finger_joints_on_lid=0&amp;ChestHinge_finger_joints_on_lid=1&amp;x=121&amp;y=165&amp;h=28&amp;outside=0&amp;lidheight=10&amp;thickness=3.175&amp;labels=0
SettingsUrl: http://www.festi.info/boxes.py/IntegratedHingeBox?FingerJoint_angle=90.0&amp;FingerJoint_style=rectangular&amp;FingerJoint_surroundingspaces=2.0&amp;FingerJoint_bottom_lip=0.0&amp;FingerJoint_edge_width=1.0&amp;FingerJoint_extra_length=0.0&amp;FingerJoint_finger=2.0&amp;FingerJoint_play=0.0&amp;FingerJoint_space=2.0&amp;FingerJoint_width=1.0&amp;ChestHinge_finger_joints_on_box=0&amp;ChestHinge_finger_joints_on_box=1&amp;ChestHinge_finger_joints_on_lid=0&amp;ChestHinge_finger_joints_on_lid=1&amp;ChestHinge_hinge_strength=1.0&amp;ChestHinge_pin_height=2.0&amp;ChestHinge_play=0.1&amp;x=121&amp;y=165&amp;h=28&amp;outside=0&amp;lidheight=10&amp;thickness=3.175&amp;format=svg&amp;tabs=0.0&amp;qr_code=0&amp;debug=0&amp;labels=0&amp;reference=100&amp;inner_corners=loop&amp;burn=0.1&amp;language=en&amp;render=2
SettingsUrl short: http://www.festi.info/boxes.py/IntegratedHingeBox?ChestHinge_finger_joints_on_box=0&amp;ChestHinge_finger_joints_on_box=1&amp;ChestHinge_finger_joints_on_lid=0&amp;ChestHinge_finger_joints_on_lid=1&amp;x=121&amp;y=165&amp;h=28&amp;outside=0&amp;lidheight=10&amp;thickness=3.175&amp;labels=0
</dc:description>
      </cc:Work>
    </rdf:RDF>
  </metadata>
  <g
     id="p-1"
     style="fill:none;stroke-linecap:round;stroke-linejoin:round;stroke:#ff0000;stroke-opacity:1;stroke-width:0.01;stroke-dasharray:none">
    <path
       d="m 22.615,458.07 h 9.475 c 0.055,0 0.1,-0.045 0.1,-0.1 v -3.075 c 0,-0.1 -0.1,0 0,0 h 6.15 c 0.1,0 0,-0.1 0,0 v 3.075 c 0,0.055 0.045,0.1 0.1,0.1 h 6.35 c 0.055,0 0.1,-0.045 0.1,-0.1 v -3.075 c 0,-0.1 -0.1,0 0,0 h 6.15 c 0.1,0 0,-0.1 0,0 v 3.075 c 0,0.055 0.045,0.1 0.1,0.1 h 6.35 c 0.055,0 0.1,-0.045 0.1,-0.1 v -3.075 c 0,-0.1 -0.1,0 0,0 h 6.15 c 0.1,0 0,-0.1 0,0 v 3.075 c 0,0.055 0.045,0.1 0.1,0.1 h 6.35 c 0.055,0 0.1,-0.045 0.1,-0.1 v -3.075 c 0,-0.1 -0.1,0 0,0 h 6.15 c 0.1,0 0,-0.1 0,0 v 3.075 c 0,0.055 0.045,0.1 0.1,0.1 h 6.35 c 0.055,0 0.1,-0.045 0.1,-0.1 v -3.075 c 0,-0.1 -0.1,0 0,0 h 6.15 c 0.1,0 0,-0.1 0,0 v 3.075 c 0,0.055 0.045,0.1 0.1,0.1 h 6.35 c 0.055,0 0.1,-0.045 0.1,-0.1 v -3.075 c 0,-0.1 -0.1,0 0,0 h 6.15 c 0.1,0 0,-0.1 0,0 v 3.075 c 0,0.055 0.045,0.1 0.1,0.1 h 6.35 c 0.055,0 0.1,-0.045 0.1,-0.1 v -3.075 c 0,-0.1 -0.1,0 0,0 h 6.15 c 0.1,0 0,-0.1 0,0 v 3.075 c 0,0.055 0.045,0.1 0.1,0.1 h 6.35 c 0.055,0 0.1,-0.045 0.1,-0.1 v -3.075 c 0,-0.1 -0.1,0 0,0 h 6.15 c 0.1,0 0,-0.1 0,0 v 3.075 c 0,0.055 0.045,0.1 0.1,0.1 h 6.35 c 0.055,0 0.1,-0.045 0.1,-0.1 v -3.075 c 0,-0.1 -0.1,0 0,0 h 6.15 c 0.1,0 0,-0.1 0,0 v 3.075 c 0,0.055 0.045,0.1 0.1,0.1 h 6.35 c 0.055,0 0.1,-0.045 0.1,-0.1 v -3.075 c 0,-0.1 -0.1,0 0,0 h 6.15 c 0.1,0 0,-0.1 0,0 v 3.075 c 0,0.055 0.045,0.1 0.1,0.1 h 6.35 c 0.055,0 0.1,-0.045 0.1,-0.1 v -3.075 c 0,-0.1 -0.1,0 0,0 h 6.15 c 0.1,0 0,-0.1 0,0 v 3.075 c 0,0.055 0.045,0.1 0.1,0.1 h 6.35 c 0.055,0 0.1,-0.045 0.1,-0.1 v -3.075 c 0,-0.1 -0.1,0 0,0 h 6.15 c 0.1,0 0,-0.1 0,0 v 3.075 c 0,0.055 0.045,0.1 0.1,0.1 h 9.475 c 0.055,0 0.1,-0.045 0.1,-0.1 v -3.175 -10.725 c 0,-0.1 -0.1,0 0,0 h 3.075 c 0.055,0 0.1,-0.045 0.1,-0.1 v -6.35 c 0,-0.055 -0.045,-0.1 -0.1,-0.1 h -3.075 c -0.1,0 0,0.1 0,0 v -10.725 c 0,-0.055 -0.045,-0.1 -0.1,-0.1 h -12.65 c -0.055,0 -0.1,0.045 -0.1,0.1 v 3.075 c 0,0.1 0.1,0 0,0 h -6.15 c -0.1,0 0,0.1 0,0 v -3.075 c 0,-0.055 -0.045,-0.1 -0.1,-0.1 h -6.35 c -0.055,0 -0.1,0.045 -0.1,0.1 v 3.075 c 0,0.1 0.1,0 0,0 h -6.15 c -0.1,0 0,0.1 0,0 v -3.075 c 0,-0.055 -0.045,-0.1 -0.1,-0.1 h -6.35 c -0.055,0 -0.1,0.045 -0.1,0.1 v 3.075 c 0,0.1 0.1,0 0,0 h -6.15 c -0.1,0 0,0.1 0,0 v -3.075 c 0,-0.055 -0.045,-0.1 -0.1,-0.1 h -6.35 c -0.055,0 -0.1,0.045 -0.1,0.1 v 3.075 c 0,0.1 0.1,0 0,0 h -6.15 c -0.1,0 0,0.1 0,0 v -3.075 c 0,-0.055 -0.045,-0.1 -0.1,-0.1 h -6.35 c -0.055,0 -0.1,0.045 -0.1,0.1 v 3.075 c 0,0.1 0.1,0 0,0 h -6.15 c -0.1,0 0,0.1 0,0 v -3.075 c 0,-0.055 -0.045,-0.1 -0.1,-0.1 h -6.35 c -0.055,0 -0.1,0.045 -0.1,0.1 v 3.075 c 0,0.1 0.1,0 0,0 h -6.15 c -0.1,0 0,0.1 0,0 v -3.075 c 0,-0.055 -0.045,-0.1 -0.1,-0.1 h -6.35 c -0.055,0 -0.1,0.045 -0.1,0.1 v 3.075 c 0,0.1 0.1,0 0,0 h -6.15 c -0.1,0 0,0.1 0,0 v -3.075 c 0,-0.055 -0.045,-0.1 -0.1,-0.1 h -6.35 c -0.055,0 -0.1,0.045 -0.1,0.1 v 3.075 c 0,0.1 0.1,0 0,0 h -6.15 c -0.1,0 0,0.1 0,0 v -3.075 c 0,-0.055 -0.045,-0.1 -0.1,-0.1 h -6.35 c -0.055,0 -0.1,0.045 -0.1,0.1 v 3.075 c 0,0.1 0.1,0 0,0 h -6.15 c -0.1,0 0,0.1 0,0 v -3.075 c 0,-0.055 -0.045,-0.1 -0.1,-0.1 h -6.35 c -0.055,0 -0.1,0.045 -0.1,0.1 v 3.075 c 0,0.1 0.1,0 0,0 h -6.15 c -0.1,0 0,0.1 0,0 v -3.075 c 0,-0.055 -0.045,-0.1 -0.1,-0.1 h -6.35 c -0.055,0 -0.1,0.045 -0.1,0.1 v 3.075 c 0,0.1 0.1,0 0,0 h -6.15 c -0.1,0 0,0.1 0,0 v -3.075 c 0,-0.055 -0.045,-0.1 -0.1,-0.1 h -12.65 c 0.055,0 0.1,0.045 0.1,0.1 0,-1.904 -0.564,-3.765 -1.622,-5.347 -1.058,-1.583 -2.561,-2.817 -4.32,-3.545 -1.758,-0.729 -3.694,-0.919 -5.561,-0.548 -1.867,0.371 -3.582,1.288 -4.928,2.634 -1.346,1.346 -2.263,3.061 -2.634,4.928 -0.371,1.867 -0.181,3.803 0.548,5.561 0.728,1.759 1.962,3.262 3.545,4.32 1.583,1.058 3.443,1.622 5.347,1.622 h 3.175 c -0.017,0 -0.035,-0.005 -0.05,-0.013 -0.015,-0.009 -0.028,-0.022 -0.037,-0.037 -0.008,-0.015 -0.013,-0.032 -0.013,-0.05 0,-0.018 0.005,-0.035 0.013,-0.05 0.009,-0.015 0.022,-0.028 0.037,-0.037 0.015,-0.008 0.033,-0.013 0.05,-0.013 -0.055,0 -0.1,0.045 -0.1,0.1 v 5.963 c 0,0.1 0.1,0 0,0 H 19.44 c -0.055,0 -0.1,0.044 -0.1,0.1 v 6.35 c 0,0.055 0.045,0.1 0.1,0.1 h 3.075 c 0.1,0 0,-0.1 0,0 v 5.962 3.175 c 0,0.055 0.045,0.1 0.1,0.1 z"
       stroke="#000000"
       stroke-width="0.2"
       id="path195"
       style="stroke:#ff0000;stroke-opacity:1;stroke-width:0.01;stroke-dasharray:none" />
    <path
       d="m 13.19,426.695 c 0,-1.198 0.344,-2.371 0.992,-3.379 0.648,-1.008 1.572,-1.808 2.662,-2.306 1.09,-0.498 2.3,-0.672 3.486,-0.501 1.185,0.17 2.297,0.678 3.203,1.463 0.905,0.784 1.566,1.813 1.904,2.962 0.337,1.15 0.337,2.372 0,3.522 -0.338,1.149 -0.999,2.178 -1.904,2.962 -0.906,0.785 -2.018,1.293 -3.203,1.463 -1.186,0.171 -2.396,-0.003 -3.486,-0.501 -1.09,-0.498 -2.014,-1.298 -2.662,-2.306 -0.648,-1.008 -0.992,-2.181 -0.992,-3.379 z"
       stroke="#0000ff"
       stroke-width="0.2"
       id="path197"
       style="stroke:#ff0000;stroke-opacity:1;stroke-width:0.01;stroke-dasharray:none" />
    <path
       d="m 21.028,422.043 h 1.487 c 0.1,0 0,-0.1 0,0 v 4.552 c 0,0.1 0.1,0 0,0 H 19.54 c -0.1,0 0,0.1 0,0 v -4.552 c 0,-0.1 -0.1,0 0,0 z"
       stroke="#0000ff"
       stroke-width="0.2"
       id="path199"
       style="stroke:#ff0000;stroke-opacity:1;stroke-width:0.01;stroke-dasharray:none" />
  </g>
  <g
     id="p-2"
     style="fill:none;stroke-linecap:round;stroke-linejoin:round;stroke:#ff0000;stroke-opacity:1;stroke-width:0.01;stroke-dasharray:none">
    <path
       d="m 22.615,415.265 c -0.017,0 -0.035,-0.005 -0.05,-0.013 -0.015,-0.009 -0.028,-0.022 -0.037,-0.037 -0.008,-0.015 -0.013,-0.032 -0.013,-0.05 0,-0.018 0.005,-0.035 0.013,-0.05 0.009,-0.015 0.022,-0.028 0.037,-0.037 0.015,-0.008 0.033,-0.013 0.05,-0.013 H 19.44 c 0.018,0 0.035,0.005 0.05,0.013 0.015,0.009 0.028,0.022 0.037,0.037 0.008,0.015 0.013,0.032 0.013,0.05 0,0.018 -0.005,0.035 -0.013,0.05 -0.009,0.015 -0.022,0.028 -0.037,0.037 -0.015,0.008 -0.032,0.013 -0.05,0.013 1.71,0 3.39,0.45 4.871,1.305 1.481,0.855 2.711,2.085 3.566,3.566 0.855,1.481 1.306,3.161 1.306,4.872 0,0.055 0.044,0.1 0.1,0.1 h -0.318 12.65 c 0.055,0 0.1,-0.045 0.1,-0.1 v -3.075 c 0,-0.1 -0.1,0 0,0 h 6.15 c 0.1,0 0,-0.1 0,0 v 3.075 c 0,0.055 0.045,0.1 0.1,0.1 h 6.35 c 0.055,0 0.1,-0.045 0.1,-0.1 v -3.075 c 0,-0.1 -0.1,0 0,0 h 6.15 c 0.1,0 0,-0.1 0,0 v 3.075 c 0,0.055 0.045,0.1 0.1,0.1 h 6.35 c 0.055,0 0.1,-0.045 0.1,-0.1 v -3.075 c 0,-0.1 -0.1,0 0,0 h 6.15 c 0.1,0 0,-0.1 0,0 v 3.075 c 0,0.055 0.045,0.1 0.1,0.1 h 6.35 c 0.055,0 0.1,-0.045 0.1,-0.1 v -3.075 c 0,-0.1 -0.1,0 0,0 h 6.15 c 0.1,0 0,-0.1 0,0 v 3.075 c 0,0.055 0.045,0.1 0.1,0.1 h 6.35 c 0.055,0 0.1,-0.045 0.1,-0.1 v -3.075 c 0,-0.1 -0.1,0 0,0 h 6.15 c 0.1,0 0,-0.1 0,0 v 3.075 c 0,0.055 0.045,0.1 0.1,0.1 h 6.35 c 0.055,0 0.1,-0.045 0.1,-0.1 v -3.075 c 0,-0.1 -0.1,0 0,0 h 6.15 c 0.1,0 0,-0.1 0,0 v 3.075 c 0,0.055 0.045,0.1 0.1,0.1 h 6.35 c 0.055,0 0.1,-0.045 0.1,-0.1 v -3.075 c 0,-0.1 -0.1,0 0,0 h 6.15 c 0.1,0 0,-0.1 0,0 v 3.075 c 0,0.055 0.045,0.1 0.1,0.1 h 6.35 c 0.055,0 0.1,-0.045 0.1,-0.1 v -3.075 c 0,-0.1 -0.1,0 0,0 h 6.15 c 0.1,0 0,-0.1 0,0 v 3.075 c 0,0.055 0.045,0.1 0.1,0.1 h 6.35 c 0.055,0 0.1,-0.045 0.1,-0.1 v -3.075 c 0,-0.1 -0.1,0 0,0 h 6.15 c 0.1,0 0,-0.1 0,0 v 3.075 c 0,0.055 0.045,0.1 0.1,0.1 h 6.35 c 0.055,0 0.1,-0.045 0.1,-0.1 v -3.075 c 0,-0.1 -0.1,0 0,0 h 6.15 c 0.1,0 0,-0.1 0,0 v 3.075 c 0,0.055 0.045,0.1 0.1,0.1 h 6.35 c 0.055,0 0.1,-0.045 0.1,-0.1 v -3.075 c 0,-0.1 -0.1,0 0,0 h 6.15 c 0.1,0 0,-0.1 0,0 v 3.075 c 0,0.055 0.045,0.1 0.1,0.1 h 12.65 c 0.055,0 0.1,-0.045 0.1,-0.1 v -1.725 c 0,-0.1 -0.1,0 0,0 h 3.075 c 0.055,0 0.1,-0.045 0.1,-0.1 v -6.35 c 0,-0.056 -0.045,-0.1 -0.1,-0.1 h -3.075 c -0.1,0 0,0.1 0,0 v -1.725 -3.175 c 0,-0.056 -0.045,-0.1 -0.1,-0.1 h -9.475 c -0.055,0 -0.1,0.044 -0.1,0.1 v 3.075 c 0,0.1 0.1,0 0,0 h -6.15 c -0.1,0 0,0.1 0,0 v -3.075 c 0,-0.056 -0.045,-0.1 -0.1,-0.1 h -6.35 c -0.055,0 -0.1,0.044 -0.1,0.1 v 3.075 c 0,0.1 0.1,0 0,0 h -6.15 c -0.1,0 0,0.1 0,0 v -3.075 c 0,-0.056 -0.045,-0.1 -0.1,-0.1 h -6.35 c -0.055,0 -0.1,0.044 -0.1,0.1 v 3.075 c 0,0.1 0.1,0 0,0 h -6.15 c -0.1,0 0,0.1 0,0 v -3.075 c 0,-0.056 -0.045,-0.1 -0.1,-0.1 h -6.35 c -0.055,0 -0.1,0.044 -0.1,0.1 v 3.075 c 0,0.1 0.1,0 0,0 h -6.15 c -0.1,0 0,0.1 0,0 v -3.075 c 0,-0.056 -0.045,-0.1 -0.1,-0.1 h -6.35 c -0.055,0 -0.1,0.044 -0.1,0.1 v 3.075 c 0,0.1 0.1,0 0,0 h -6.15 c -0.1,0 0,0.1 0,0 v -3.075 c 0,-0.056 -0.045,-0.1 -0.1,-0.1 h -6.35 c -0.055,0 -0.1,0.044 -0.1,0.1 v 3.075 c 0,0.1 0.1,0 0,0 h -6.15 c -0.1,0 0,0.1 0,0 v -3.075 c 0,-0.056 -0.045,-0.1 -0.1,-0.1 h -6.35 c -0.055,0 -0.1,0.044 -0.1,0.1 v 3.075 c 0,0.1 0.1,0 0,0 h -6.15 c -0.1,0 0,0.1 0,0 v -3.075 c 0,-0.056 -0.045,-0.1 -0.1,-0.1 h -6.35 c -0.055,0 -0.1,0.044 -0.1,0.1 v 3.075 c 0,0.1 0.1,0 0,0 h -6.15 c -0.1,0 0,0.1 0,0 v -3.075 c 0,-0.056 -0.045,-0.1 -0.1,-0.1 h -6.35 c -0.055,0 -0.1,0.044 -0.1,0.1 v 3.075 c 0,0.1 0.1,0 0,0 h -6.15 c -0.1,0 0,0.1 0,0 v -3.075 c 0,-0.056 -0.045,-0.1 -0.1,-0.1 h -6.35 c -0.055,0 -0.1,0.044 -0.1,0.1 v 3.075 c 0,0.1 0.1,0 0,0 h -6.15 c -0.1,0 0,0.1 0,0 v -3.075 c 0,-0.056 -0.045,-0.1 -0.1,-0.1 h -6.35 c -0.055,0 -0.1,0.044 -0.1,0.1 v 3.075 c 0,0.1 0.1,0 0,0 h -6.15 c -0.1,0 0,0.1 0,0 v -3.075 c 0,-0.056 -0.045,-0.1 -0.1,-0.1 h -6.35 c -0.055,0 -0.1,0.044 -0.1,0.1 v 3.075 c 0,0.1 0.1,0 0,0 h -6.15 c -0.1,0 0,0.1 0,0 v -3.075 c 0,-0.056 -0.045,-0.1 -0.1,-0.1 h -9.475 c -0.055,0 -0.1,0.044 -0.1,0.1 v 3.175 0.078 0.079 c 0,0.055 0.045,0.1 0.1,0.1 z"
       stroke="#000000"
       stroke-width="0.2"
       id="path202"
       style="stroke:#ff0000;stroke-opacity:1;stroke-width:0.01;stroke-dasharray:none" />
  </g>
  <g
     id="p-3"
     style="fill:none;stroke-linecap:round;stroke-linejoin:round;stroke:#ff0000;stroke-opacity:1;stroke-width:0.01;stroke-dasharray:none">
    <path
       d="m 22.615,410.145 h 9.475 c 0.055,0 0.1,-0.045 0.1,-0.1 v -3.075 c 0,-0.1 -0.1,0 0,0 h 6.15 c 0.1,0 0,-0.1 0,0 v 3.075 c 0,0.055 0.045,0.1 0.1,0.1 h 6.35 c 0.055,0 0.1,-0.045 0.1,-0.1 v -3.075 c 0,-0.1 -0.1,0 0,0 h 6.15 c 0.1,0 0,-0.1 0,0 v 3.075 c 0,0.055 0.045,0.1 0.1,0.1 h 6.35 c 0.055,0 0.1,-0.045 0.1,-0.1 v -3.075 c 0,-0.1 -0.1,0 0,0 h 6.15 c 0.1,0 0,-0.1 0,0 v 3.075 c 0,0.055 0.045,0.1 0.1,0.1 h 6.35 c 0.055,0 0.1,-0.045 0.1,-0.1 v -3.075 c 0,-0.1 -0.1,0 0,0 h 6.15 c 0.1,0 0,-0.1 0,0 v 3.075 c 0,0.055 0.045,0.1 0.1,0.1 h 6.35 c 0.055,0 0.1,-0.045 0.1,-0.1 v -3.075 c 0,-0.1 -0.1,0 0,0 h 6.15 c 0.1,0 0,-0.1 0,0 v 3.075 c 0,0.055 0.045,0.1 0.1,0.1 h 6.35 c 0.055,0 0.1,-0.045 0.1,-0.1 v -3.075 c 0,-0.1 -0.1,0 0,0 h 6.15 c 0.1,0 0,-0.1 0,0 v 3.075 c 0,0.055 0.045,0.1 0.1,0.1 h 6.35 c 0.055,0 0.1,-0.045 0.1,-0.1 v -3.075 c 0,-0.1 -0.1,0 0,0 h 6.15 c 0.1,0 0,-0.1 0,0 v 3.075 c 0,0.055 0.045,0.1 0.1,0.1 h 6.35 c 0.055,0 0.1,-0.045 0.1,-0.1 v -3.075 c 0,-0.1 -0.1,0 0,0 h 6.15 c 0.1,0 0,-0.1 0,0 v 3.075 c 0,0.055 0.045,0.1 0.1,0.1 h 6.35 c 0.055,0 0.1,-0.045 0.1,-0.1 v -3.075 c 0,-0.1 -0.1,0 0,0 h 6.15 c 0.1,0 0,-0.1 0,0 v 3.075 c 0,0.055 0.045,0.1 0.1,0.1 h 6.35 c 0.055,0 0.1,-0.045 0.1,-0.1 v -3.075 c 0,-0.1 -0.1,0 0,0 h 6.15 c 0.1,0 0,-0.1 0,0 v 3.075 c 0,0.055 0.045,0.1 0.1,0.1 h 6.35 c 0.055,0 0.1,-0.045 0.1,-0.1 v -3.075 c 0,-0.1 -0.1,0 0,0 h 6.15 c 0.1,0 0,-0.1 0,0 v 3.075 c 0,0.055 0.045,0.1 0.1,0.1 h 6.35 c 0.055,0 0.1,-0.045 0.1,-0.1 v -3.075 c 0,-0.1 -0.1,0 0,0 h 6.15 c 0.1,0 0,-0.1 0,0 v 3.075 c 0,0.055 0.045,0.1 0.1,0.1 h 9.475 c 0.055,0 0.1,-0.045 0.1,-0.1 v -3.175 -5.963 c 0,-0.099 -0.1,0.001 0,0 h 3.075 c 0.055,0.001 0.1,-0.044 0.1,-0.099 v -6.35 c 0,-0.056 -0.045,-0.1 -0.1,-0.1 h -3.075 c -0.1,0 0,0.1 0,-10e-4 v -5.962 c 0,-0.055 -0.045,-0.1 -0.1,-0.1 0.018,0 0.035,0.005 0.05,0.013 0.015,0.009 0.028,0.022 0.037,0.037 0.008,0.015 0.013,0.032 0.013,0.05 0,0.018 -0.005,0.035 -0.013,0.05 -0.009,0.015 -0.022,0.028 -0.037,0.037 -0.015,0.008 -0.032,0.013 -0.05,0.013 h 3.175 c 1.904,0 3.765,-0.564 5.347,-1.622 1.583,-1.058 2.817,-2.561 3.545,-4.32 0.729,-1.758 0.919,-3.694 0.548,-5.561 -0.371,-1.867 -1.288,-3.582 -2.634,-4.928 -1.346,-1.346 -3.061,-2.263 -4.928,-2.634 -1.867,-0.371 -3.803,-0.181 -5.561,0.548 -1.759,0.728 -3.262,1.962 -4.32,3.545 -1.057,1.582 -1.622,3.443 -1.622,5.347 0,-0.055 0.045,-0.1 0.1,-0.1 h -12.65 c -0.055,0 -0.1,0.045 -0.1,0.1 v 3.075 c 0,0.1 0.1,0 0,0 h -6.15 c -0.1,0 0,0.1 0,0 v -3.075 c 0,-0.055 -0.045,-0.1 -0.1,-0.1 h -6.35 c -0.055,0 -0.1,0.045 -0.1,0.1 v 3.075 c 0,0.1 0.1,0 0,0 h -6.15 c -0.1,0 0,0.1 0,0 v -3.075 c 0,-0.055 -0.045,-0.1 -0.1,-0.1 h -6.35 c -0.055,0 -0.1,0.045 -0.1,0.1 v 3.075 c 0,0.1 0.1,0 0,0 h -6.15 c -0.1,0 0,0.1 0,0 v -3.075 c 0,-0.055 -0.045,-0.1 -0.1,-0.1 h -6.35 c -0.055,0 -0.1,0.045 -0.1,0.1 v 3.075 c 0,0.1 0.1,0 0,0 h -6.15 c -0.1,0 0,0.1 0,0 v -3.075 c 0,-0.055 -0.045,-0.1 -0.1,-0.1 h -6.35 c -0.055,0 -0.1,0.045 -0.1,0.1 v 3.075 c 0,0.1 0.1,0 0,0 h -6.15 c -0.1,0 0,0.1 0,0 v -3.075 c 0,-0.055 -0.045,-0.1 -0.1,-0.1 h -6.35 c -0.055,0 -0.1,0.045 -0.1,0.1 v 3.075 c 0,0.1 0.1,0 0,0 h -6.15 c -0.1,0 0,0.1 0,0 v -3.075 c 0,-0.055 -0.045,-0.1 -0.1,-0.1 h -6.35 c -0.055,0 -0.1,0.045 -0.1,0.1 v 3.075 c 0,0.1 0.1,0 0,0 h -6.15 c -0.1,0 0,0.1 0,0 v -3.075 c 0,-0.055 -0.045,-0.1 -0.1,-0.1 h -6.35 c -0.055,0 -0.1,0.045 -0.1,0.1 v 3.075 c 0,0.1 0.1,0 0,0 h -6.15 c -0.1,0 0,0.1 0,0 v -3.075 c 0,-0.055 -0.045,-0.1 -0.1,-0.1 h -6.35 c -0.055,0 -0.1,0.045 -0.1,0.1 v 3.075 c 0,0.1 0.1,0 0,0 h -6.15 c -0.1,0 0,0.1 0,0 v -3.075 c 0,-0.055 -0.045,-0.1 -0.1,-0.1 h -6.35 c -0.055,0 -0.1,0.045 -0.1,0.1 v 3.075 c 0,0.1 0.1,0 0,0 h -6.15 c -0.1,0 0,0.1 0,0 v -3.075 c 0,-0.055 -0.045,-0.1 -0.1,-0.1 h -6.35 c -0.055,0 -0.1,0.045 -0.1,0.1 v 3.075 c 0,0.1 0.1,0 0,0 h -6.15 c -0.1,0 0,0.1 0,0 v -3.075 c 0,-0.055 -0.045,-0.1 -0.1,-0.1 h -12.65 c -0.055,0 -0.1,0.045 -0.1,0.1 v 10.725 c 0,0.1 0.1,0 0,0 H 19.44 c -0.055,0 -0.1,0.045 -0.1,0.1 v 6.35 c 0,0.055 0.045,0.1 0.1,0.1 h 3.075 c 0.1,0 0,-0.1 0,0 v 10.725 3.175 c 0,0.055 0.045,0.1 0.1,0.1 z"
       stroke="#000000"
       stroke-width="0.2"
       id="path205"
       style="stroke:#ff0000;stroke-opacity:1;stroke-width:0.01;stroke-dasharray:none" />
    <path
       d="m 184.54,378.77 c 0,-1.198 0.344,-2.371 0.992,-3.379 0.648,-1.008 1.572,-1.808 2.662,-2.306 1.09,-0.498 2.3,-0.672 3.486,-0.501 1.185,0.17 2.297,0.678 3.203,1.463 0.905,0.784 1.566,1.813 1.904,2.962 0.337,1.15 0.337,2.372 0,3.522 -0.338,1.149 -0.999,2.178 -1.904,2.962 -0.906,0.785 -2.018,1.293 -3.203,1.463 -1.186,0.171 -2.396,-0.003 -3.486,-0.501 -1.09,-0.498 -2.014,-1.298 -2.662,-2.306 -0.648,-1.008 -0.992,-2.181 -0.992,-3.379 z"
       stroke="#0000ff"
       stroke-width="0.2"
       id="path207"
       style="stroke:#ff0000;stroke-opacity:1;stroke-width:0.01;stroke-dasharray:none" />
    <path
       d="m 189.203,374.118 h 1.487 c 0.1,0 0,-0.1 0,0 v 4.552 c 0,0.1 0.1,0 0,0 h -2.975 c -0.1,0 0,0.1 0,0 v -4.552 c 0,-0.1 -0.1,0 0,0 z"
       stroke="#0000ff"
       stroke-width="0.2"
       id="path209"
       style="stroke:#ff0000;stroke-opacity:1;stroke-width:0.01;stroke-dasharray:none" />
  </g>
  <g
     id="p-4"
     style="fill:none;stroke-linecap:round;stroke-linejoin:round;stroke:#ff0000;stroke-opacity:1;stroke-width:0.01;stroke-dasharray:none">
    <path
       d="m 22.615,377.183 h 12.65 c 0.055,0 0.1,-0.045 0.1,-0.1 v -3.075 c 0,-0.1 -0.1,0 0,0 h 6.15 c 0.1,0 0,-0.1 0,0 v 3.075 c 0,0.055 0.045,0.1 0.1,0.1 h 6.35 c 0.055,0 0.1,-0.045 0.1,-0.1 v -3.075 c 0,-0.1 -0.1,0 0,0 h 6.15 c 0.1,0 0,-0.1 0,0 v 3.075 c 0,0.055 0.045,0.1 0.1,0.1 h 6.35 c 0.055,0 0.1,-0.045 0.1,-0.1 v -3.075 c 0,-0.1 -0.1,0 0,0 h 6.15 c 0.1,0 0,-0.1 0,0 v 3.075 c 0,0.055 0.045,0.1 0.1,0.1 h 6.35 c 0.055,0 0.1,-0.045 0.1,-0.1 v -3.075 c 0,-0.1 -0.1,0 0,0 h 6.15 c 0.1,0 0,-0.1 0,0 v 3.075 c 0,0.055 0.045,0.1 0.1,0.1 h 6.35 c 0.055,0 0.1,-0.045 0.1,-0.1 v -3.075 c 0,-0.1 -0.1,0 0,0 h 6.15 c 0.1,0 0,-0.1 0,0 v 3.075 c 0,0.055 0.045,0.1 0.1,0.1 h 6.35 c 0.055,0 0.1,-0.045 0.1,-0.1 v -3.075 c 0,-0.1 -0.1,0 0,0 h 6.15 c 0.1,0 0,-0.1 0,0 v 3.075 c 0,0.055 0.045,0.1 0.1,0.1 h 6.35 c 0.055,0 0.1,-0.045 0.1,-0.1 v -3.075 c 0,-0.1 -0.1,0 0,0 h 6.15 c 0.1,0 0,-0.1 0,0 v 3.075 c 0,0.055 0.045,0.1 0.1,0.1 h 6.35 c 0.055,0 0.1,-0.045 0.1,-0.1 v -3.075 c 0,-0.1 -0.1,0 0,0 h 6.15 c 0.1,0 0,-0.1 0,0 v 3.075 c 0,0.055 0.045,0.1 0.1,0.1 h 6.35 c 0.055,0 0.1,-0.045 0.1,-0.1 v -3.075 c 0,-0.1 -0.1,0 0,0 h 6.15 c 0.1,0 0,-0.1 0,0 v 3.075 c 0,0.055 0.045,0.1 0.1,0.1 h 6.35 c 0.055,0 0.1,-0.045 0.1,-0.1 v -3.075 c 0,-0.1 -0.1,0 0,0 h 6.15 c 0.1,0 0,-0.1 0,0 v 3.075 c 0,0.055 0.045,0.1 0.1,0.1 h 6.35 c 0.055,0 0.1,-0.045 0.1,-0.1 v -3.075 c 0,-0.1 -0.1,0 0,0 h 6.15 c 0.1,0 0,-0.1 0,-10e-4 v 3.076 c 0,0.055 0.045,0.1 0.1,0.1 h 12.65 -0.317 c 0.055,0 0.1,-0.045 0.1,-0.1 0,-1.711 0.45,-3.391 1.305,-4.872 0.855,-1.481 2.085,-2.711 3.566,-3.566 1.481,-0.855 3.161,-1.305 4.871,-1.305 -0.017,0 -0.035,-0.005 -0.05,-0.013 -0.015,-0.009 -0.028,-0.022 -0.037,-0.037 -0.008,-0.015 -0.013,-0.032 -0.013,-0.05 0,-0.018 0.005,-0.035 0.013,-0.05 0.009,-0.015 0.022,-0.028 0.037,-0.037 0.015,-0.008 0.033,-0.013 0.05,-0.013 h -3.175 c 0.018,0 0.035,0.005 0.05,0.013 0.015,0.009 0.028,0.022 0.037,0.037 0.008,0.015 0.013,0.032 0.013,0.05 0,0.018 -0.005,0.035 -0.013,0.05 -0.009,0.015 -0.022,0.028 -0.037,0.037 -0.015,0.008 -0.032,0.013 -0.05,0.013 0.055,0 0.1,-0.045 0.1,-0.1 v -0.079 -0.078 -3.175 c 0,-0.056 -0.045,-0.1 -0.1,-0.1 h -9.475 c -0.055,0 -0.1,0.044 -0.1,0.1 v 3.075 c 0,0.1 0.1,0 0,0 h -6.15 c -0.1,0 0,0.1 0,0 v -3.075 c 0,-0.056 -0.045,-0.1 -0.1,-0.1 h -6.35 c -0.055,0 -0.1,0.044 -0.1,0.1 v 3.075 c 0,0.1 0.1,0 0,0 h -6.15 c -0.1,0 0,0.1 0,0 v -3.075 c 0,-0.056 -0.045,-0.1 -0.1,-0.1 h -6.35 c -0.055,0 -0.1,0.044 -0.1,0.1 v 3.074 c 0,0.101 0.1,10e-4 0,0 h -6.15 c -0.1,10e-4 0,0.101 0,10e-4 v -3.075 c 0,-0.056 -0.045,-0.1 -0.1,-0.1 h -6.35 c -0.055,0 -0.1,0.044 -0.1,0.1 v 3.075 c 0,0.1 0.1,0 0,0 h -6.15 c -0.1,0 0,0.1 0,-10e-4 v -3.074 c 0,-0.056 -0.045,-0.1 -0.1,-0.1 h -6.35 c -0.055,0 -0.1,0.044 -0.1,0.1 v 3.074 c 0,0.101 0.1,10e-4 0,0 h -6.15 c -0.1,0 0,0.1 0,0 v -3.075 c 0,-0.055 -0.045,-0.099 -0.1,-0.099 h -6.35 c -0.055,-10e-4 -0.1,0.044 -0.1,0.099 v 3.076 c 0,0.099 0.1,-10e-4 0,0 h -6.15 c -0.1,-10e-4 0,0.099 0,-10e-4 v -3.075 c 0,-0.055 -0.045,-0.1 -0.1,-0.1 h -6.35 c -0.055,0 -0.1,0.045 -0.1,0.1 v 3.076 c 0,0.099 0.1,-10e-4 0,0 h -6.15 c -0.1,-10e-4 0,0.099 0,-10e-4 v -3.075 c 0,-0.055 -0.045,-0.1 -0.1,-0.1 h -6.35 c -0.055,0 -0.1,0.045 -0.1,0.1 v 3.075 c 0,0.1 0.1,0 0,0 h -6.15 c -0.1,0 0,0.1 0,0 v -3.075 c 0,-0.055 -0.045,-0.1 -0.1,-0.1 h -6.35 c -0.055,0 -0.1,0.045 -0.1,0.1 v 3.076 c 0,0.099 0.1,-10e-4 0,0 h -6.15 c -0.1,-10e-4 0,0.099 0,-10e-4 v -3.075 c 0,-0.055 -0.045,-0.1 -0.1,-0.1 h -6.35 c -0.055,0 -0.1,0.045 -0.1,0.1 v 3.075 c 0,0.1 0.1,0 0,0 h -6.15 c -0.1,0 0,0.1 0,0 v -3.075 c 0,-0.055 -0.045,-0.1 -0.1,-0.1 h -6.35 c -0.055,0 -0.1,0.045 -0.1,0.1 v 3.075 c 0,0.1 0.1,0 0,0 h -6.15 c -0.1,0 0,0.1 0,0 v -3.075 c 0,-0.055 -0.045,-0.1 -0.1,-0.1 h -6.35 c -0.055,0 -0.1,0.045 -0.1,0.1 v 3.075 c 0,0.1 0.1,0 0,0 h -6.15 c -0.1,0 0,0.1 0,0 v -3.075 c 0,-0.055 -0.045,-0.1 -0.1,-0.1 h -9.475 c -0.055,0 -0.1,0.045 -0.1,0.1 v 3.175 1.725 c 0,0.1 0.1,0 0,0 H 19.44 c -0.055,0 -0.1,0.045 -0.1,0.1 v 6.35 c 0,0.056 0.045,0.1 0.1,0.1 h 3.075 c 0.1,0 0,-0.1 0,0 v 1.725 c 0,0.056 0.045,0.1 0.1,0.1 z"
       stroke="#000000"
       stroke-width="0.2"
       id="path212"
       style="stroke:#ff0000;stroke-opacity:1;stroke-width:0.01;stroke-dasharray:none" />
  </g>
  <g
     id="p-5"
     style="fill:none;stroke-linecap:round;stroke-linejoin:round;stroke:#ff0000;stroke-opacity:1;stroke-width:0.01;stroke-dasharray:none">
    <path
       d="m 22.615,362.22 h 6.525 c 0.055,0 0.1,-0.045 0.1,-0.1 v -3.075 c 0,-0.1 -0.1,0 0,0 h 6.15 c 0.1,0 0,-0.1 0,0 v 3.075 c 0,0.055 0.045,0.1 0.1,0.1 h 6.35 c 0.055,0 0.1,-0.045 0.1,-0.1 v -3.075 c 0,-0.1 -0.1,0 0,0 h 6.15 c 0.1,0 0,-0.1 0,0 v 3.075 c 0,0.055 0.045,0.1 0.1,0.1 h 6.35 c 0.055,0 0.1,-0.045 0.1,-0.1 v -3.075 c 0,-0.1 -0.1,0 0,0 h 6.15 c 0.1,0 0,-0.1 0,0 v 3.075 c 0,0.055 0.045,0.1 0.1,0.1 h 6.35 c 0.055,0 0.1,-0.045 0.1,-0.1 v -3.075 c 0,-0.1 -0.1,0 0,0 h 6.15 c 0.1,0 0,-0.1 0,0 v 3.075 c 0,0.055 0.045,0.1 0.1,0.1 h 6.35 c 0.055,0 0.1,-0.045 0.1,-0.1 v -3.075 c 0,-0.1 -0.1,0 0,0 h 6.15 c 0.1,0 0,-0.1 0,0 v 3.075 c 0,0.055 0.045,0.1 0.1,0.1 h 6.35 c 0.055,0 0.1,-0.045 0.1,-0.1 v -3.075 c 0,-0.1 -0.1,0 0,0 h 6.15 c 0.1,0 0,-0.1 0,0 v 3.075 c 0,0.055 0.045,0.1 0.1,0.1 h 6.35 c 0.055,0 0.1,-0.045 0.1,-0.1 v -3.075 c 0,-0.1 -0.1,0 0,0 h 6.15 c 0.1,0 0,-0.1 0,0 v 3.075 c 0,0.055 0.045,0.1 0.1,0.1 h 6.35 c 0.055,0 0.1,-0.045 0.1,-0.1 v -3.075 c 0,-0.1 -0.1,0 0,0 h 6.15 c 0.1,0 0,-0.1 0,0 v 3.075 c 0,0.055 0.045,0.1 0.1,0.1 h 6.35 c 0.055,0 0.1,-0.045 0.1,-0.1 v -3.075 c 0,-0.1 -0.1,0 0,0 h 6.15 c 0.1,0 0,-0.1 0,0 v 3.075 c 0,0.055 0.045,0.1 0.1,0.1 h 6.525 3.175 c 0.055,0 0.1,-0.045 0.1,-0.1 v -3.175 -10.825 c 0,-0.055 -0.045,-0.1 -0.1,-0.1 h -3.075 c -0.1,0 0,0.1 0,0 v -6.15 c 0,-0.1 -0.1,0 0,0 h 3.075 c 0.055,0 0.1,-0.045 0.1,-0.1 v -10.825 c 0,-0.055 -0.045,-0.1 -0.1,-0.1 h -3.175 -121 -3.175 c -0.055,0 -0.1,0.045 -0.1,0.1 v 10.825 c 0,0.055 0.045,0.1 0.1,0.1 h 3.075 c 0.1,0 0,-0.1 0,0 v 6.15 c 0,0.1 0.1,0 0,0 H 19.44 c -0.055,0 -0.1,0.045 -0.1,0.1 v 10.825 3.175 c 0,0.055 0.045,0.1 0.1,0.1 z"
       stroke="#000000"
       stroke-width="0.2"
       id="path215"
       style="stroke:#ff0000;stroke-opacity:1;stroke-width:0.01;stroke-dasharray:none" />
  </g>
  <g
     id="p-6"
     style="fill:none;stroke-linecap:round;stroke-linejoin:round;stroke:#ff0000;stroke-opacity:1;stroke-width:0.01;stroke-dasharray:none">
    <path
       d="m 22.615,329.258 h 6.525 c 0.055,0 0.1,-0.045 0.1,-0.1 v -3.075 c 0,-0.1 -0.1,0 0,0 h 6.15 c 0.1,0 0,-0.1 0,0 v 3.075 c 0,0.055 0.045,0.1 0.1,0.1 h 6.35 c 0.055,0 0.1,-0.045 0.1,-0.1 v -3.075 c 0,-0.1 -0.1,0 0,0 h 6.15 c 0.1,0 0,-0.1 0,0 v 3.075 c 0,0.055 0.045,0.1 0.1,0.1 h 6.35 c 0.055,0 0.1,-0.045 0.1,-0.1 v -3.075 c 0,-0.1 -0.1,0 0,0 h 6.15 c 0.1,0 0,-0.1 0,0 v 3.075 c 0,0.055 0.045,0.1 0.1,0.1 h 6.35 c 0.055,0 0.1,-0.045 0.1,-0.1 v -3.075 c 0,-0.1 -0.1,0 0,0 h 6.15 c 0.1,0 0,-0.1 0,0 v 3.075 c 0,0.055 0.045,0.1 0.1,0.1 h 6.35 c 0.055,0 0.1,-0.045 0.1,-0.1 v -3.076 c 0,-0.099 -0.1,0.001 0,0 h 6.15 c 0.1,0.001 0,-0.099 0,0.001 v 3.075 c 0,0.055 0.045,0.1 0.1,0.1 h 6.35 c 0.055,0 0.1,-0.045 0.1,-0.1 v -3.075 c 0,-0.1 -0.1,0 0,0 h 6.15 c 0.1,0 0,-0.1 0,0 v 3.075 c 0,0.055 0.045,0.1 0.1,0.1 h 6.35 c 0.055,0 0.1,-0.045 0.1,-0.1 v -3.075 c 0,-0.1 -0.1,0 0,0 h 6.15 c 0.1,0 0,-0.1 0,0 v 3.075 c 0,0.055 0.045,0.1 0.1,0.1 h 6.35 c 0.055,0 0.1,-0.045 0.1,-0.1 v -3.075 c 0,-0.1 -0.1,0 0,0 h 6.15 c 0.1,0 0,-0.1 0,0 v 3.075 c 0,0.055 0.045,0.1 0.1,0.1 h 6.35 c 0.055,0 0.1,-0.045 0.1,-0.1 v -3.076 c 0,-0.099 -0.1,0.001 0,0 h 6.15 c 0.1,0.001 0,-0.099 0,0.001 v 3.075 c 0,0.055 0.045,0.1 0.1,0.1 h 6.525 3.175 c 0.055,0 0.1,-0.045 0.1,-0.1 v -3.175 -6.063 c 0,-0.055 -0.045,-0.1 -0.1,-0.1 h -3.075 c -0.1,0 0,0.1 0,0 v -6.15 c 0,-0.1 -0.1,0 0,0 h 3.075 c 0.055,0 0.1,-0.045 0.1,-0.1 v -6.062 c 0,-0.056 -0.045,-0.1 -0.1,-0.1 h -3.075 c -0.1,0 0,0.1 0,0 v -9.425 c 0,-0.056 -0.045,-0.1 -0.1,-0.1 h -121 c -0.055,0 -0.1,0.044 -0.1,0.1 v 9.425 c 0,0.1 0.1,0 0,0 H 19.44 c -0.055,0 -0.1,0.044 -0.1,0.1 v 6.062 c 0,0.055 0.045,0.1 0.1,0.1 h 3.075 c 0.1,0 0,-0.1 0,0 v 6.15 c 0,0.1 0.1,0 0,0 H 19.44 c -0.055,0 -0.1,0.045 -0.1,0.1 v 6.063 3.175 c 0,0.055 0.045,0.1 0.1,0.1 z"
       stroke="#000000"
       stroke-width="0.2"
       id="path218"
       style="stroke:#ff0000;stroke-opacity:1;stroke-width:0.01;stroke-dasharray:none" />
  </g>
  <g
     id="p-7"
     style="fill:none;stroke-linecap:round;stroke-linejoin:round;stroke:#ff0000;stroke-opacity:1;stroke-width:0.01;stroke-dasharray:none">
    <path
       d="m 22.615,296.295 h 6.525 c 0.055,0 0.1,-0.045 0.1,-0.1 v -3.075 c 0,-0.1 -0.1,0 0,0 h 6.15 c 0.1,0 0,-0.1 0,0 v 3.075 c 0,0.055 0.045,0.1 0.1,0.1 h 6.35 c 0.055,0 0.1,-0.045 0.1,-0.1 v -3.075 c 0,-0.1 -0.1,0 0,0 h 6.15 c 0.1,0 0,-0.1 0,0 v 3.075 c 0,0.055 0.045,0.1 0.1,0.1 h 6.35 c 0.055,0 0.1,-0.045 0.1,-0.1 v -3.075 c 0,-0.1 -0.1,0 0,0 h 6.15 c 0.1,0 0,-0.1 0,0 v 3.075 c 0,0.055 0.045,0.1 0.1,0.1 h 6.35 c 0.055,0 0.1,-0.045 0.1,-0.1 v -3.075 c 0,-0.1 -0.1,0 0,0 h 6.15 c 0.1,0 0,-0.1 0,0 v 3.075 c 0,0.055 0.045,0.1 0.1,0.1 h 6.35 c 0.055,0 0.1,-0.045 0.1,-0.1 v -3.075 c 0,-0.1 -0.1,0 0,0 h 6.15 c 0.1,0 0,-0.1 0,0 v 3.075 c 0,0.055 0.045,0.1 0.1,0.1 h 6.35 c 0.055,0 0.1,-0.045 0.1,-0.1 v -3.075 c 0,-0.1 -0.1,0 0,0 h 6.15 c 0.1,0 0,-0.1 0,0 v 3.075 c 0,0.055 0.045,0.1 0.1,0.1 h 6.35 c 0.055,0 0.1,-0.045 0.1,-0.1 v -3.075 c 0,-0.1 -0.1,0 0,0 h 6.15 c 0.1,0 0,-0.1 0,0 v 3.075 c 0,0.055 0.045,0.1 0.1,0.1 h 6.35 c 0.055,0 0.1,-0.045 0.1,-0.1 v -3.075 c 0,-0.1 -0.1,0 0,0 h 6.15 c 0.1,0 0,-0.1 0,0 v 3.075 c 0,0.055 0.045,0.1 0.1,0.1 h 6.35 c 0.055,0 0.1,-0.045 0.1,-0.1 v -3.075 c 0,-0.1 -0.1,0 0,0 h 6.15 c 0.1,0 0,-0.1 0,0 v 3.075 c 0,0.055 0.045,0.1 0.1,0.1 h 6.525 3.175 c 0.055,0 0.1,-0.045 0.1,-0.1 v -3.175 -1.825 c 0,-0.055 -0.045,-0.1 -0.1,-0.1 h -3.075 c -0.1,0 0,0.1 0,0 v -6.15 c 0,-0.1 -0.1,0 0,0 h 3.075 c 0.055,0 0.1,-0.045 0.1,-0.1 v -1.825 c 0,-0.055 -0.045,-0.1 -0.1,-0.1 h -3.175 -121 -3.175 c -0.055,0 -0.1,0.045 -0.1,0.1 v 1.825 c 0,0.055 0.045,0.1 0.1,0.1 h 3.075 c 0.1,0 0,-0.1 0,0 v 6.15 c 0,0.1 0.1,0 0,0 H 19.44 c -0.055,0 -0.1,0.045 -0.1,0.1 v 1.825 3.175 c 0,0.055 0.045,0.1 0.1,0.1 z"
       stroke="#000000"
       stroke-width="0.2"
       id="path221"
       style="stroke:#ff0000;stroke-opacity:1;stroke-width:0.01;stroke-dasharray:none" />
  </g>
  <g
     id="p-8"
     style="fill:none;stroke-linecap:round;stroke-linejoin:round;stroke:#ff0000;stroke-opacity:1;stroke-width:0.01;stroke-dasharray:none">
    <path
       d="m 22.615,281.333 h 6.525 c 0.055,0 0.1,-0.045 0.1,-0.1 v -3.075 c 0,-0.1 -0.1,0 0,0 h 6.15 c 0.1,0 0,-0.1 0,0 v 3.075 c 0,0.055 0.045,0.1 0.1,0.1 h 6.35 c 0.055,0 0.1,-0.045 0.1,-0.1 v -3.075 c 0,-0.1 -0.1,0 0,0 h 6.15 c 0.1,0 0,-0.1 0,0 v 3.075 c 0,0.055 0.045,0.1 0.1,0.1 h 6.35 c 0.055,0 0.1,-0.045 0.1,-0.1 v -3.075 c 0,-0.1 -0.1,0 0,0 h 6.15 c 0.1,0 0,-0.1 0,0 v 3.075 c 0,0.055 0.045,0.1 0.1,0.1 h 6.35 c 0.055,0 0.1,-0.045 0.1,-0.1 v -3.076 c 0,-0.099 -0.1,0.001 0,0 h 6.15 c 0.1,0.001 0,-0.099 0,0.001 v 3.075 c 0,0.055 0.045,0.1 0.1,0.1 h 6.35 c 0.055,0 0.1,-0.045 0.1,-0.1 v -3.075 c 0,-0.1 -0.1,0 0,0 h 6.15 c 0.1,0 0,-0.1 0,0 v 3.075 c 0,0.055 0.045,0.1 0.1,0.1 h 6.35 c 0.055,0 0.1,-0.045 0.1,-0.1 v -3.075 c 0,-0.1 -0.1,0 0,0 h 6.15 c 0.1,0 0,-0.1 0,0 v 3.075 c 0,0.055 0.045,0.1 0.1,0.1 h 6.35 c 0.055,0 0.1,-0.045 0.1,-0.1 v -3.075 c 0,-0.1 -0.1,0 0,0 h 6.15 c 0.1,0 0,-0.1 0,0 v 3.075 c 0,0.055 0.045,0.1 0.1,0.1 h 6.35 c 0.055,0 0.1,-0.045 0.1,-0.1 v -3.075 c 0,-0.1 -0.1,0 0,0 h 6.15 c 0.1,0 0,-0.1 0,0 v 3.075 c 0,0.055 0.045,0.1 0.1,0.1 h 6.35 c 0.055,0 0.1,-0.045 0.1,-0.1 v -3.075 c 0,-0.1 -0.1,0 0,0 h 6.15 c 0.1,0 0,-0.1 0,0 v 3.075 c 0,0.055 0.045,0.1 0.1,0.1 h 6.525 3.175 c 0.055,0 0.1,-0.045 0.1,-0.1 v -3.175 -0.079 -0.079 c 0,-0.055 -0.045,-0.1 -0.1,-0.1 h -3.075 c -0.1,0 0,0.1 0,0 v -4.573 c 0,-0.1 -0.1,0 0,0 h 3.075 c 0.055,0 0.1,-0.045 0.1,-0.1 v -4.752 c 0,-0.055 -0.045,-0.1 -0.1,-0.1 h -9.7 c -0.055,0 -0.1,0.045 -0.1,0.1 v 3.075 c 0,0.1 0.1,0 0,0 h -6.15 c -0.1,0 0,0.1 0,0 v -3.075 c 0,-0.055 -0.045,-0.1 -0.1,-0.1 h -6.35 c -0.055,0 -0.1,0.045 -0.1,0.1 v 3.075 c 0,0.1 0.1,0 0,0 h -6.15 c -0.1,0 0,0.1 0,0 v -3.075 c 0,-0.055 -0.045,-0.1 -0.1,-0.1 h -6.35 c -0.055,0 -0.1,0.045 -0.1,0.1 v 3.075 c 0,0.1 0.1,0 0,0 h -6.15 c -0.1,0 0,0.1 0,0 v -3.075 c 0,-0.055 -0.045,-0.1 -0.1,-0.1 h -6.35 c -0.055,0 -0.1,0.045 -0.1,0.1 v 3.075 c 0,0.1 0.1,0 0,0 h -6.15 c -0.1,0 0,0.1 0,0 v -3.075 c 0,-0.055 -0.045,-0.1 -0.1,-0.1 h -6.35 c -0.055,0 -0.1,0.045 -0.1,0.1 v 3.075 c 0,0.1 0.1,0 0,0 h -6.15 c -0.1,0 0,0.1 0,0 v -3.075 c 0,-0.055 -0.045,-0.1 -0.1,-0.1 h -6.35 c -0.055,0 -0.1,0.045 -0.1,0.1 v 3.075 c 0,0.1 0.1,0 0,0 h -6.15 c -0.1,0 0,0.1 0,0 v -3.075 c 0,-0.055 -0.045,-0.1 -0.1,-0.1 h -6.35 c -0.055,0 -0.1,0.045 -0.1,0.1 v 3.075 c 0,0.1 0.1,0 0,0 h -6.15 c -0.1,0 0,0.1 0,0 v -3.075 c 0,-0.055 -0.045,-0.1 -0.1,-0.1 h -6.35 c -0.055,0 -0.1,0.045 -0.1,0.1 v 3.075 c 0,0.1 0.1,0 0,0 h -6.15 c -0.1,0 0,0.1 0,0 v -3.075 c 0,-0.055 -0.045,-0.1 -0.1,-0.1 h -6.35 c -0.055,0 -0.1,0.045 -0.1,0.1 v 3.075 c 0,0.1 0.1,0 0,0 h -6.15 c -0.1,0 0,0.1 0,0 v -3.075 c 0,-0.055 -0.045,-0.1 -0.1,-0.1 h -9.7 c -0.055,0 -0.1,0.045 -0.1,0.1 v 4.752 c 0,0.055 0.045,0.1 0.1,0.1 h 3.075 c 0.1,0 0,-0.1 0,0 v 4.573 c 0,0.1 0.1,0 0,0 H 19.44 c -0.055,0 -0.1,0.045 -0.1,0.1 v 0.079 0.079 3.175 c 0,0.055 0.045,0.1 0.1,0.1 z"
       stroke="#000000"
       stroke-width="0.2"
       id="path224"
       style="stroke:#ff0000;stroke-opacity:1;stroke-width:0.01;stroke-dasharray:none" />
  </g>
  <g
     id="p-9"
     style="fill:none;stroke-linecap:round;stroke-linejoin:round;stroke:#ff0000;stroke-opacity:1;stroke-width:0.01;stroke-dasharray:none">
    <path
       d="m 22.615,263.513 h 9.375 c 0.1,0 0,-0.1 0,0 v 3.075 c 0,0.055 0.045,0.1 0.1,0.1 h 6.35 c 0.055,0 0.1,-0.045 0.1,-0.1 v -3.075 c 0,-0.1 -0.1,0 0,0 h 6.15 c 0.1,0 0,-0.1 0,0 v 3.075 c 0,0.055 0.045,0.1 0.1,0.1 h 6.35 c 0.055,0 0.1,-0.045 0.1,-0.1 v -3.075 c 0,-0.1 -0.1,0 0,0 h 6.15 c 0.1,0 0,-0.1 0,0 v 3.075 c 0,0.055 0.045,0.1 0.1,0.1 h 6.35 c 0.055,0 0.1,-0.045 0.1,-0.1 v -3.075 c 0,-0.1 -0.1,0 0,0 h 6.15 c 0.1,0 0,-0.1 0,0 v 3.075 c 0,0.055 0.045,0.1 0.1,0.1 h 6.35 c 0.055,0 0.1,-0.045 0.1,-0.1 v -3.075 c 0,-0.1 -0.1,0 0,0 h 6.15 c 0.1,0 0,-0.1 0,0 v 3.075 c 0,0.055 0.045,0.1 0.1,0.1 h 6.35 c 0.055,0 0.1,-0.045 0.1,-0.1 v -3.075 c 0,-0.1 -0.1,0 0,0 h 6.15 c 0.1,0 0,-0.1 0,0 v 3.075 c 0,0.055 0.045,0.1 0.1,0.1 h 6.35 c 0.055,0 0.1,-0.045 0.1,-0.1 v -3.075 c 0,-0.1 -0.1,0 0,0 h 6.15 c 0.1,0 0,-0.1 0,0 v 3.075 c 0,0.055 0.045,0.1 0.1,0.1 h 6.35 c 0.055,0 0.1,-0.045 0.1,-0.1 v -3.075 c 0,-0.1 -0.1,0 0,0 h 6.15 c 0.1,0 0,-0.1 0,0 v 3.075 c 0,0.055 0.045,0.1 0.1,0.1 h 6.35 c 0.055,0 0.1,-0.045 0.1,-0.1 v -3.075 c 0,-0.1 -0.1,0 0,0 h 6.15 c 0.1,0 0,-0.1 0,0 v 3.075 c 0,0.055 0.045,0.1 0.1,0.1 h 6.35 c 0.055,0 0.1,-0.045 0.1,-0.1 v -3.075 c 0,-0.1 -0.1,0 0,0 h 6.15 c 0.1,0 0,-0.1 0,0 v 3.075 c 0,0.055 0.045,0.1 0.1,0.1 h 6.35 c 0.055,0 0.1,-0.045 0.1,-0.1 v -3.075 c 0,-0.1 -0.1,0 0,0 h 6.15 c 0.1,0 0,-0.1 0,0 v 3.075 c 0,0.055 0.045,0.1 0.1,0.1 h 6.35 c 0.055,0 0.1,-0.045 0.1,-0.1 v -3.075 c 0,-0.1 -0.1,0 0,0 h 6.15 c 0.1,0 0,-0.1 0,0 v 3.075 c 0,0.055 0.045,0.1 0.1,0.1 h 6.35 c 0.055,0 0.1,-0.045 0.1,-0.1 v -3.075 c 0,-0.1 -0.1,0 0,0 h 9.375 c 0.055,0 0.1,-0.045 0.1,-0.1 v -6.425 c 0,-0.1 -0.1,0 0,0 h 3.075 c 0.055,0 0.1,-0.045 0.1,-0.1 v -6.35 c 0,-0.056 -0.045,-0.1 -0.1,-0.1 h -3.075 c -0.1,0 0,0.1 0,0 v -6.15 c 0,-0.1 -0.1,0 0,0 h 3.075 c 0.055,0 0.1,-0.045 0.1,-0.1 v -6.35 c 0,-0.056 -0.045,-0.1 -0.1,-0.1 h -3.075 c -0.1,0 0,0.1 0,0 v -6.15 c 0,-0.1 -0.1,0 0,0 h 3.075 c 0.055,0 0.1,-0.045 0.1,-0.1 v -6.35 c 0,-0.056 -0.045,-0.1 -0.1,-0.1 h -3.075 c -0.1,0 0,0.1 0,-0.001 v -6.149 c 0,-0.1 -0.1,0 0,0 h 3.075 c 0.055,0 0.1,-0.045 0.1,-0.1 v -6.35 c 0,-0.056 -0.045,-0.1 -0.1,-0.1 h -3.075 c -0.1,0 0,0.1 0,0 v -6.15 c 0,-0.1 -0.1,0 0,0 h 3.075 c 0.055,0 0.1,-0.045 0.1,-0.1 v -6.35 c 0,-0.056 -0.045,-0.1 -0.1,-0.1 h -3.075 c -0.1,0 0,0.1 0,0 v -6.15 c 0,-0.1 -0.1,0 0,0 h 3.075 c 0.055,0 0.1,-0.045 0.1,-0.1 v -6.35 c 0,-0.056 -0.045,-0.1 -0.1,-0.1 h -3.075 c -0.1,0 0,0.1 0,0 v -6.15 c 0,-0.1 -0.1,0 0,0 h 3.075 c 0.055,0 0.1,-0.045 0.1,-0.1 v -6.35 c 0,-0.056 -0.045,-0.1 -0.1,-0.1 h -3.075 c -0.1,0 0,0.1 0,0 v -6.15 c 0,-0.1 -0.1,0 0,0 h 3.075 c 0.055,0 0.1,-0.045 0.1,-0.1 v -6.35 c 0,-0.056 -0.045,-0.1 -0.1,-0.1 h -3.075 c -0.1,0 0,0.1 0,0 v -6.15 c 0,-0.1 -0.1,0 0,0 h 3.075 c 0.055,0 0.1,-0.045 0.1,-0.1 v -6.35 c 0,-0.056 -0.045,-0.1 -0.1,-0.1 h -3.075 c -0.1,0 0,0.1 0,0 v -6.425 c 0,-0.056 -0.045,-0.1 -0.1,-0.1 h -9.375 c -0.1,0 0,0.1 0,0 v -3.075 c 0,-0.056 -0.045,-0.1 -0.1,-0.1 h -6.35 c -0.055,0 -0.1,0.044 -0.1,0.1 v 3.075 c 0,0.1 0.1,0 0,0 h -6.15 c -0.1,0 0,0.1 0,0 v -3.075 c 0,-0.056 -0.045,-0.1 -0.1,-0.1 h -6.35 c -0.055,0 -0.1,0.044 -0.1,0.1 v 3.075 c 0,0.1 0.1,0 0,0 h -6.15 c -0.1,0 0,0.1 0,0 v -3.075 c 0,-0.056 -0.045,-0.1 -0.1,-0.1 h -6.35 c -0.055,0 -0.1,0.044 -0.1,0.1 v 3.075 c 0,0.1 0.1,0 0,0 h -6.15 c -0.1,0 0,0.1 0,0 v -3.075 c 0,-0.056 -0.045,-0.1 -0.1,-0.1 h -6.35 c -0.055,0 -0.1,0.044 -0.1,0.1 v 3.075 c 0,0.1 0.1,0 0,0 h -6.15 c -0.1,0 0,0.1 0,0 v -3.075 c 0,-0.056 -0.045,-0.1 -0.1,-0.1 h -6.35 c -0.055,0 -0.1,0.044 -0.1,0.1 v 3.075 c 0,0.1 0.1,0 0,0 h -6.15 c -0.1,0 0,0.1 0,0 v -3.075 c 0,-0.056 -0.045,-0.1 -0.1,-0.1 h -6.35 c -0.055,0 -0.1,0.044 -0.1,0.1 v 3.075 c 0,0.1 0.1,0 0,0 h -6.15 c -0.1,0 0,0.1 0,0 v -3.075 c 0,-0.056 -0.045,-0.1 -0.1,-0.1 h -6.35 c -0.055,0 -0.1,0.044 -0.1,0.1 v 3.075 c 0,0.1 0.1,0 0,0 h -6.15 c -0.1,0 0,0.1 0,0 v -3.075 c 0,-0.056 -0.045,-0.1 -0.1,-0.1 h -6.35 c -0.055,0 -0.1,0.044 -0.1,0.1 v 3.075 c 0,0.1 0.1,0 0,0 h -6.15 c -0.1,0 0,0.1 0,0 v -3.075 c 0,-0.056 -0.045,-0.1 -0.1,-0.1 h -6.35 c -0.055,0 -0.1,0.044 -0.1,0.1 v 3.075 c 0,0.1 0.1,0 0,0 h -6.15 c -0.1,0 0,0.1 0,0 v -3.075 c 0,-0.056 -0.045,-0.1 -0.1,-0.1 h -6.35 c -0.055,0 -0.1,0.044 -0.1,0.1 v 3.075 c 0,0.1 0.1,0 0,0 h -6.15 c -0.1,0 0,0.1 0,0 v -3.075 c 0,-0.056 -0.045,-0.1 -0.1,-0.1 h -6.35 c -0.055,0 -0.1,0.044 -0.1,0.1 v 3.075 c 0,0.1 0.1,0 0,0 h -6.15 c -0.1,0 0,0.1 0,0 v -3.075 c 0,-0.056 -0.045,-0.1 -0.1,-0.1 h -6.35 c -0.055,0 -0.1,0.044 -0.1,0.1 v 3.075 c 0,0.1 0.1,0 0,0 h -9.375 c -0.055,0 -0.1,0.044 -0.1,0.1 v 6.425 c 0,0.1 0.1,0 0,0 H 19.44 c -0.055,0 -0.1,0.044 -0.1,0.1 v 6.35 c 0,0.055 0.045,0.1 0.1,0.1 h 3.075 c 0.1,0 0,-0.1 0,0 v 6.15 c 0,0.1 0.1,0 0,0 H 19.44 c -0.055,0 -0.1,0.044 -0.1,0.1 v 6.35 c 0,0.055 0.045,0.1 0.1,0.1 h 3.075 c 0.1,0 0,-0.1 0,0 v 6.15 c 0,0.1 0.1,0 0,0 H 19.44 c -0.055,0 -0.1,0.044 -0.1,0.1 v 6.35 c 0,0.055 0.045,0.1 0.1,0.1 h 3.075 c 0.1,0 0,-0.1 0,0 v 6.15 c 0,0.1 0.1,0 0,0 H 19.44 c -0.055,0 -0.1,0.044 -0.1,0.1 v 6.35 c 0,0.055 0.045,0.1 0.1,0.1 h 3.075 c 0.1,0 0,-0.1 0,0 v 6.15 c 0,0.1 0.1,0 0,0 H 19.44 c -0.055,0 -0.1,0.044 -0.1,0.1 v 6.35 c 0,0.055 0.045,0.1 0.1,0.1 h 3.075 c 0.1,0 0,-0.1 0,0 v 6.15 c 0,0.1 0.1,0 0,0 H 19.44 c -0.055,0 -0.1,0.044 -0.1,0.1 v 6.35 c 0,0.055 0.045,0.1 0.1,0.1 h 3.075 c 0.1,0 0,-0.1 0,0 v 6.15 c 0,0.1 0.1,0 0,0 H 19.44 c -0.055,0 -0.1,0.044 -0.1,0.1 v 6.35 c 0,0.055 0.045,0.1 0.1,0.1 h 3.075 c 0.1,0 0,-0.1 0,0 v 6.15 c 0,0.1 0.1,0 0,0 H 19.44 c -0.055,0 -0.1,0.044 -0.1,0.1 v 6.35 c 0,0.055 0.045,0.1 0.1,0.1 h 3.075 c 0.1,0 0,-0.1 0,0 v 6.15 c 0,0.1 0.1,0 0,0 H 19.44 c -0.055,0 -0.1,0.044 -0.1,0.1 v 6.35 c 0,0.055 0.045,0.1 0.1,0.1 h 3.075 c 0.1,0 0,-0.1 0,0 v 6.425 c 0,0.055 0.045,0.1 0.1,0.1 z"
       stroke="#000000"
       stroke-width="0.2"
       id="path227"
       style="stroke:#ff0000;stroke-opacity:1;stroke-width:0.01;stroke-dasharray:none" />
  </g>
  <g
     id="p-10"
     style="fill:none;stroke-linecap:round;stroke-linejoin:round;stroke:#ff0000;stroke-opacity:1;stroke-width:0.01;stroke-dasharray:none">
    <path
       d="m 22.615,134.375 h 9.375 c 0.1,0 0,-0.1 0,0 v 3.075 c 0,0.055 0.045,0.1 0.1,0.1 h 6.35 c 0.055,0 0.1,-0.045 0.1,-0.1 v -3.075 c 0,-0.1 -0.1,0 0,0 h 6.15 c 0.1,0 0,-0.1 0,0 v 3.075 c 0,0.055 0.045,0.1 0.1,0.1 h 6.35 c 0.055,0 0.1,-0.045 0.1,-0.1 v -3.075 c 0,-0.1 -0.1,0 0,0 h 6.15 c 0.1,0 0,-0.1 0,0 v 3.075 c 0,0.055 0.045,0.1 0.1,0.1 h 6.35 c 0.055,0 0.1,-0.045 0.1,-0.1 v -3.075 c 0,-0.1 -0.1,0 0,0 h 6.15 c 0.1,0 0,-0.1 0,0 v 3.075 c 0,0.055 0.045,0.1 0.1,0.1 h 6.35 c 0.055,0 0.1,-0.045 0.1,-0.1 v -3.075 c 0,-0.1 -0.1,0 0,0 h 6.15 c 0.1,0 0,-0.1 0,0 v 3.075 c 0,0.055 0.045,0.1 0.1,0.1 h 6.35 c 0.055,0 0.1,-0.045 0.1,-0.1 v -3.075 c 0,-0.1 -0.1,0 0,0 h 6.15 c 0.1,0 0,-0.1 0,0 v 3.075 c 0,0.055 0.045,0.1 0.1,0.1 h 6.35 c 0.055,0 0.1,-0.045 0.1,-0.1 v -3.075 c 0,-0.1 -0.1,0 0,0 h 6.15 c 0.1,0 0,-0.1 0,0 v 3.075 c 0,0.055 0.045,0.1 0.1,0.1 h 6.35 c 0.055,0 0.1,-0.045 0.1,-0.1 v -3.075 c 0,-0.1 -0.1,0 0,0 h 6.15 c 0.1,0 0,-0.1 0,0 v 3.075 c 0,0.055 0.045,0.1 0.1,0.1 h 6.35 c 0.055,0 0.1,-0.045 0.1,-0.1 v -3.075 c 0,-0.1 -0.1,0 0,0 h 6.15 c 0.1,0 0,-0.1 0,0 v 3.075 c 0,0.055 0.045,0.1 0.1,0.1 h 6.35 c 0.055,0 0.1,-0.045 0.1,-0.1 v -3.075 c 0,-0.1 -0.1,0 0,0 h 6.15 c 0.1,0 0,-0.1 0,0 v 3.075 c 0,0.055 0.045,0.1 0.1,0.1 h 6.35 c 0.055,0 0.1,-0.045 0.1,-0.1 v -3.075 c 0,-0.1 -0.1,0 0,0 h 6.15 c 0.1,0 0,-0.1 0,0 v 3.075 c 0,0.055 0.045,0.1 0.1,0.1 h 6.35 c 0.055,0 0.1,-0.045 0.1,-0.1 v -3.075 c 0,-0.1 -0.1,0 0,0 h 6.15 c 0.1,0 0,-0.1 0,0 v 3.075 c 0,0.055 0.045,0.1 0.1,0.1 h 6.35 c 0.055,0 0.1,-0.045 0.1,-0.1 v -3.075 c 0,-0.1 -0.1,0 0,0 h 9.375 c 0.055,0 0.1,-0.045 0.1,-0.1 v -6.425 c 0,-0.1 -0.1,0 0,0 h 3.075 c 0.055,0 0.1,-0.045 0.1,-0.1 v -6.35 c 0,-0.055 -0.045,-0.1 -0.1,-0.1 h -3.075 c -0.1,0 0,0.1 0,0 v -6.15 c 0,-0.1 -0.1,0 0,0 h 3.075 c 0.055,0 0.1,-0.045 0.1,-0.1 v -6.35 c 0,-0.055 -0.045,-0.1 -0.1,-0.1 h -3.075 c -0.1,0 0,0.1 0,0 v -6.15 c 0,-0.1 -0.1,0 0,0 h 3.075 c 0.055,0 0.1,-0.045 0.1,-0.1 V 96 c 0,-0.055 -0.045,-0.1 -0.1,-0.1 h -3.075 c -0.1,0 0,0.1 0,0 v -6.15 c 0,-0.1 -0.1,0 0,0 h 3.075 c 0.055,0 0.1,-0.045 0.1,-0.1 V 83.3 c 0,-0.055 -0.045,-0.1 -0.1,-0.1 h -3.075 c -0.1,0 0,0.1 0,0 v -6.15 c 0,-0.1 -0.1,0 0,0 h 3.075 c 0.055,0 0.1,-0.045 0.1,-0.1 V 70.6 c 0,-0.055 -0.045,-0.1 -0.1,-0.1 h -3.075 c -0.1,0 0,0.1 0,0 v -6.15 c 0,-0.1 -0.1,0 0,0 h 3.075 c 0.055,0 0.1,-0.045 0.1,-0.1 V 57.9 c 0,-0.055 -0.045,-0.1 -0.1,-0.1 h -3.075 c -0.1,0 0,0.1 0,0 v -6.15 c 0,-0.1 -0.1,0 0,0 h 3.075 c 0.055,0 0.1,-0.045 0.1,-0.1 V 45.2 c 0,-0.055 -0.045,-0.1 -0.1,-0.1 h -3.075 c -0.1,0 0,0.1 0,0 v -6.15 c 0,-0.1 -0.1,0 0,0 h 3.075 c 0.055,0 0.1,-0.045 0.1,-0.1 V 32.5 c 0,-0.055 -0.045,-0.1 -0.1,-0.1 h -3.075 c -0.1,0 0,0.1 0,0 v -6.15 c 0,-0.1 -0.1,0 0,0 h 3.075 c 0.055,0 0.1,-0.045 0.1,-0.1 V 19.8 c 0,-0.055 -0.045,-0.1 -0.1,-0.1 h -3.075 c -0.1,0 0,0.1 0,0 v -6.425 c 0,-0.055 -0.045,-0.1 -0.1,-0.1 h -9.375 c -0.1,0 0,0.1 0,0 V 10.1 c 0,-0.055 -0.045,-0.1 -0.1,-0.1 h -6.35 c -0.055,0 -0.1,0.045 -0.1,0.1 v 3.075 c 0,0.1 0.1,0 0,0 h -6.15 c -0.1,0 0,0.1 0,0 V 10.1 c 0,-0.055 -0.045,-0.1 -0.1,-0.1 h -6.35 c -0.055,0 -0.1,0.045 -0.1,0.1 v 3.075 c 0,0.1 0.1,0 0,0 h -6.15 c -0.1,0 0,0.1 0,0 V 10.1 c 0,-0.055 -0.045,-0.1 -0.1,-0.1 h -6.35 c -0.055,0 -0.1,0.045 -0.1,0.1 v 3.075 c 0,0.1 0.1,0 0,0 h -6.15 c -0.1,0 0,0.1 0,0 V 10.1 c 0,-0.055 -0.045,-0.1 -0.1,-0.1 h -6.35 c -0.055,0 -0.1,0.045 -0.1,0.1 v 3.075 c 0,0.1 0.1,0 0,0 h -6.15 c -0.1,0 0,0.1 0,0 V 10.1 c 0,-0.055 -0.045,-0.1 -0.1,-0.1 h -6.35 c -0.055,0 -0.1,0.045 -0.1,0.1 v 3.075 c 0,0.1 0.1,0 0,0 h -6.15 c -0.1,0 0,0.1 0,0 V 10.1 c 0,-0.055 -0.045,-0.1 -0.1,-0.1 h -6.35 c -0.055,0 -0.1,0.045 -0.1,0.1 v 3.075 c 0,0.1 0.1,0 0,0 h -6.15 c -0.1,0 0,0.1 0,0 V 10.1 c 0,-0.055 -0.045,-0.1 -0.1,-0.1 h -6.35 c -0.055,0 -0.1,0.045 -0.1,0.1 v 3.075 c 0,0.1 0.1,0 0,0 h -6.15 c -0.1,0 0,0.1 0,0 V 10.1 c 0,-0.055 -0.045,-0.1 -0.1,-0.1 h -6.35 c -0.055,0 -0.1,0.045 -0.1,0.1 v 3.075 c 0,0.1 0.1,0 0,0 h -6.15 c -0.1,0 0,0.1 0,0 V 10.1 c 0,-0.055 -0.045,-0.1 -0.1,-0.1 h -6.35 c -0.055,0 -0.1,0.045 -0.1,0.1 v 3.075 c 0,0.1 0.1,0 0,0 h -6.15 c -0.1,0 0,0.1 0,0 V 10.1 c 0,-0.055 -0.045,-0.1 -0.1,-0.1 h -6.35 c -0.055,0 -0.1,0.045 -0.1,0.1 v 3.075 c 0,0.1 0.1,0 0,0 h -6.15 c -0.1,0 0,0.1 0,0 V 10.1 c 0,-0.055 -0.045,-0.1 -0.1,-0.1 h -6.35 c -0.055,0 -0.1,0.045 -0.1,0.1 v 3.075 c 0,0.1 0.1,0 0,0 h -6.15 c -0.1,0 0,0.1 0,0 V 10.1 c 0,-0.055 -0.045,-0.1 -0.1,-0.1 h -6.35 c -0.055,0 -0.1,0.045 -0.1,0.1 v 3.075 c 0,0.1 0.1,0 0,0 h -9.375 c -0.055,0 -0.1,0.045 -0.1,0.1 V 19.7 c 0,0.1 0.1,0 0,0 H 19.44 c -0.055,0 -0.1,0.045 -0.1,0.1 v 6.35 c 0,0.055 0.045,0.1 0.1,0.1 h 3.075 c 0.1,0 0,-0.1 0,0 v 6.15 c 0,0.1 0.1,0 0,0 H 19.44 c -0.055,0 -0.1,0.045 -0.1,0.1 v 6.35 c 0,0.055 0.045,0.1 0.1,0.1 h 3.075 c 0.1,0 0,-0.1 0,0 v 6.15 c 0,0.1 0.1,0 0,0 H 19.44 c -0.055,0 -0.1,0.045 -0.1,0.1 v 6.35 c 0,0.055 0.045,0.1 0.1,0.1 h 3.075 c 0.1,0 0,-0.1 0,0 v 6.15 c 0,0.1 0.1,0 0,0 H 19.44 c -0.055,0 -0.1,0.045 -0.1,0.1 v 6.35 c 0,0.055 0.045,0.1 0.1,0.1 h 3.075 c 0.1,0 0,-0.1 0,0 v 6.15 c 0,0.1 0.1,0 0,0 H 19.44 c -0.055,0 -0.1,0.045 -0.1,0.1 v 6.35 c 0,0.055 0.045,0.1 0.1,0.1 h 3.075 c 0.1,0 0,-0.1 0,0 v 6.15 c 0,0.1 0.1,0 0,0 H 19.44 c -0.055,0 -0.1,0.045 -0.1,0.1 v 6.35 c 0,0.055 0.045,0.1 0.1,0.1 h 3.075 c 0.1,0 0,-0.1 0,0 v 6.15 c 0,0.1 0.1,0 0,0 H 19.44 c -0.055,0 -0.1,0.045 -0.1,0.1 v 6.35 c 0,0.055 0.045,0.1 0.1,0.1 h 3.075 c 0.1,0 0,-0.1 0,0 v 6.15 c 0,0.1 0.1,0 0,0 H 19.44 c -0.055,0 -0.1,0.045 -0.1,0.1 v 6.35 c 0,0.055 0.045,0.1 0.1,0.1 h 3.075 c 0.1,0 0,-0.1 0,0 v 6.15 c 0,0.1 0.1,0 0,0 H 19.44 c -0.055,0 -0.1,0.045 -0.1,0.1 v 6.35 c 0,0.055 0.045,0.1 0.1,0.1 h 3.075 c 0.1,0 0,-0.1 0,0 v 6.425 c 0,0.055 0.045,0.1 0.1,0.1 z"
       stroke="#000000"
       stroke-width="0.2"
       id="path230"
       style="stroke:#ff0000;stroke-opacity:1;stroke-width:0.01;stroke-dasharray:none" />
  </g>
  <rect
     style="fill:none;fill-opacity:1;stroke:#ff0000;stroke-width:0.01;stroke-dasharray:none;stroke-opacity:1"
     id="rect4138"
     width="11.805162"
     height="11.805161"
     x="99.212418"
     y="197.00992" />
</svg>
