<?xml version='1.0' encoding='utf-8'?>
<svg width="210.23mm" height="479.86mm" viewBox="0.0 0.0 210.23 479.86" xmlns="http://www.w3.org/2000/svg" xmlns:dc="http://purl.org/dc/elements/1.1/" xmlns:cc="http://creativecommons.org/ns#" xmlns:rdf="http://www.w3.org/1999/02/22-rdf-syntax-ns#" xmlns:svg="http://www.w3.org/2000/svg" xmlns:xlink="http://www.w3.org/1999/xlink" xmlns:inkscape="http://www.inkscape.org/namespaces/inkscape">
<!--
IntegratedHingeBox - Box with lid and integraded hinge

Created with Boxes.py (https://festi.info/boxes.py)
Creation date: 2023-04-24 12:19:16
Command line (remove spaces between dashes): boxes IntegratedHingeBox - -ChestHinge_finger_joints_on_box=0 - -ChestHinge_finger_joints_on_box=1 - -ChestHinge_finger_joints_on_lid=0 - -ChestHinge_finger_joints_on_lid=1 - -x=121 - -y=165 - -h=28 - -outside=0 - -lidheight=10 - -thickness=3.175 - -labels=0
Url: http://www.festi.info/boxes.py/IntegratedHingeBox?FingerJoint_angle=90.0&FingerJoint_style=rectangular&FingerJoint_surroundingspaces=2.0&FingerJoint_bottom_lip=0.0&FingerJoint_edge_width=1.0&FingerJoint_extra_length=0.0&FingerJoint_finger=2.0&FingerJoint_play=0.0&FingerJoint_space=2.0&FingerJoint_width=1.0&ChestHinge_finger_joints_on_box=0&ChestHinge_finger_joints_on_box=1&ChestHinge_finger_joints_on_lid=0&ChestHinge_finger_joints_on_lid=1&ChestHinge_hinge_strength=1.0&ChestHinge_pin_height=2.0&ChestHinge_play=0.1&x=121&y=165&h=28&outside=0&lidheight=10&thickness=3.175&format=svg&tabs=0.0&qr_code=0&debug=0&labels=0&reference=100&inner_corners=loop&burn=0.1&language=en&render=2
Url short: http://www.festi.info/boxes.py/IntegratedHingeBox?ChestHinge_finger_joints_on_box=0&ChestHinge_finger_joints_on_box=1&ChestHinge_finger_joints_on_lid=0&ChestHinge_finger_joints_on_lid=1&x=121&y=165&h=28&outside=0&lidheight=10&thickness=3.175&labels=0
SettingsUrl: http://www.festi.info/boxes.py/IntegratedHingeBox?FingerJoint_angle=90.0&FingerJoint_style=rectangular&FingerJoint_surroundingspaces=2.0&FingerJoint_bottom_lip=0.0&FingerJoint_edge_width=1.0&FingerJoint_extra_length=0.0&FingerJoint_finger=2.0&FingerJoint_play=0.0&FingerJoint_space=2.0&FingerJoint_width=1.0&ChestHinge_finger_joints_on_box=0&ChestHinge_finger_joints_on_box=1&ChestHinge_finger_joints_on_lid=0&ChestHinge_finger_joints_on_lid=1&ChestHinge_hinge_strength=1.0&ChestHinge_pin_height=2.0&ChestHinge_play=0.1&x=121&y=165&h=28&outside=0&lidheight=10&thickness=3.175&format=svg&tabs=0.0&qr_code=0&debug=0&labels=0&reference=100&inner_corners=loop&burn=0.1&language=en&render=2
SettingsUrl short: http://www.festi.info/boxes.py/IntegratedHingeBox?ChestHinge_finger_joints_on_box=0&ChestHinge_finger_joints_on_box=1&ChestHinge_finger_joints_on_lid=0&ChestHinge_finger_joints_on_lid=1&x=121&y=165&h=28&outside=0&lidheight=10&thickness=3.175&labels=0
-->
<title>IntegratedHingeBox</title>
<metadata>
<rdf:RDF><cc:Work>
<dc:title>Box - IntegratedHingeBox</dc:title>
<dc:date>2023-04-24 12:19:16</dc:date>
<dc:source>http://www.festi.info/boxes.py/IntegratedHingeBox?FingerJoint_angle=90.0&amp;FingerJoint_style=rectangular&amp;FingerJoint_surroundingspaces=2.0&amp;FingerJoint_bottom_lip=0.0&amp;FingerJoint_edge_width=1.0&amp;FingerJoint_extra_length=0.0&amp;FingerJoint_finger=2.0&amp;FingerJoint_play=0.0&amp;FingerJoint_space=2.0&amp;FingerJoint_width=1.0&amp;ChestHinge_finger_joints_on_box=0&amp;ChestHinge_finger_joints_on_box=1&amp;ChestHinge_finger_joints_on_lid=0&amp;ChestHinge_finger_joints_on_lid=1&amp;ChestHinge_hinge_strength=1.0&amp;ChestHinge_pin_height=2.0&amp;ChestHinge_play=0.1&amp;x=121&amp;y=165&amp;h=28&amp;outside=0&amp;lidheight=10&amp;thickness=3.175&amp;format=svg&amp;tabs=0.0&amp;qr_code=0&amp;debug=0&amp;labels=0&amp;reference=100&amp;inner_corners=loop&amp;burn=0.1&amp;language=en&amp;render=2</dc:source>
<dc:source>http://www.festi.info/boxes.py/IntegratedHingeBox?ChestHinge_finger_joints_on_box=0&amp;ChestHinge_finger_joints_on_box=1&amp;ChestHinge_finger_joints_on_lid=0&amp;ChestHinge_finger_joints_on_lid=1&amp;x=121&amp;y=165&amp;h=28&amp;outside=0&amp;lidheight=10&amp;thickness=3.175&amp;labels=0</dc:source>
<dc:description>Box with lid and integraded hinge

Created with Boxes.py (https://festi.info/boxes.py)
Command line: boxes IntegratedHingeBox --FingerJoint_angle=90.0 --FingerJoint_style=rectangular --FingerJoint_surroundingspaces=2.0 --FingerJoint_bottom_lip=0.0 --FingerJoint_edge_width=1.0 --FingerJoint_extra_length=0.0 --FingerJoint_finger=2.0 --FingerJoint_play=0.0 --FingerJoint_space=2.0 --FingerJoint_width=1.0 --ChestHinge_finger_joints_on_box=0 --ChestHinge_finger_joints_on_box=1 --ChestHinge_finger_joints_on_lid=0 --ChestHinge_finger_joints_on_lid=1 --ChestHinge_hinge_strength=1.0 --ChestHinge_pin_height=2.0 --ChestHinge_play=0.1 --x=121 --y=165 --h=28 --outside=0 --lidheight=10 --thickness=3.175 --format=svg --tabs=0.0 --qr_code=0 --debug=0 --labels=0 --reference=100 --inner_corners=loop --burn=0.1
Command line short: boxes IntegratedHingeBox --ChestHinge_finger_joints_on_box=0 --ChestHinge_finger_joints_on_box=1 --ChestHinge_finger_joints_on_lid=0 --ChestHinge_finger_joints_on_lid=1 --x=121 --y=165 --h=28 --outside=0 --lidheight=10 --thickness=3.175 --labels=0
Url: http://www.festi.info/boxes.py/IntegratedHingeBox?FingerJoint_angle=90.0&amp;FingerJoint_style=rectangular&amp;FingerJoint_surroundingspaces=2.0&amp;FingerJoint_bottom_lip=0.0&amp;FingerJoint_edge_width=1.0&amp;FingerJoint_extra_length=0.0&amp;FingerJoint_finger=2.0&amp;FingerJoint_play=0.0&amp;FingerJoint_space=2.0&amp;FingerJoint_width=1.0&amp;ChestHinge_finger_joints_on_box=0&amp;ChestHinge_finger_joints_on_box=1&amp;ChestHinge_finger_joints_on_lid=0&amp;ChestHinge_finger_joints_on_lid=1&amp;ChestHinge_hinge_strength=1.0&amp;ChestHinge_pin_height=2.0&amp;ChestHinge_play=0.1&amp;x=121&amp;y=165&amp;h=28&amp;outside=0&amp;lidheight=10&amp;thickness=3.175&amp;format=svg&amp;tabs=0.0&amp;qr_code=0&amp;debug=0&amp;labels=0&amp;reference=100&amp;inner_corners=loop&amp;burn=0.1&amp;language=en&amp;render=2
Url short: http://www.festi.info/boxes.py/IntegratedHingeBox?ChestHinge_finger_joints_on_box=0&amp;ChestHinge_finger_joints_on_box=1&amp;ChestHinge_finger_joints_on_lid=0&amp;ChestHinge_finger_joints_on_lid=1&amp;x=121&amp;y=165&amp;h=28&amp;outside=0&amp;lidheight=10&amp;thickness=3.175&amp;labels=0
SettingsUrl: http://www.festi.info/boxes.py/IntegratedHingeBox?FingerJoint_angle=90.0&amp;FingerJoint_style=rectangular&amp;FingerJoint_surroundingspaces=2.0&amp;FingerJoint_bottom_lip=0.0&amp;FingerJoint_edge_width=1.0&amp;FingerJoint_extra_length=0.0&amp;FingerJoint_finger=2.0&amp;FingerJoint_play=0.0&amp;FingerJoint_space=2.0&amp;FingerJoint_width=1.0&amp;ChestHinge_finger_joints_on_box=0&amp;ChestHinge_finger_joints_on_box=1&amp;ChestHinge_finger_joints_on_lid=0&amp;ChestHinge_finger_joints_on_lid=1&amp;ChestHinge_hinge_strength=1.0&amp;ChestHinge_pin_height=2.0&amp;ChestHinge_play=0.1&amp;x=121&amp;y=165&amp;h=28&amp;outside=0&amp;lidheight=10&amp;thickness=3.175&amp;format=svg&amp;tabs=0.0&amp;qr_code=0&amp;debug=0&amp;labels=0&amp;reference=100&amp;inner_corners=loop&amp;burn=0.1&amp;language=en&amp;render=2
SettingsUrl short: http://www.festi.info/boxes.py/IntegratedHingeBox?ChestHinge_finger_joints_on_box=0&amp;ChestHinge_finger_joints_on_box=1&amp;ChestHinge_finger_joints_on_lid=0&amp;ChestHinge_finger_joints_on_lid=1&amp;x=121&amp;y=165&amp;h=28&amp;outside=0&amp;lidheight=10&amp;thickness=3.175&amp;labels=0
</dc:description>
</cc:Work></rdf:RDF></metadata>
<g id="p-0" style="fill:none;stroke-linecap:round;stroke-linejoin:round;">
  <path d="M 19.440 469.858 H 119.440 V 459.858 H 19.440 V 469.858 Z" stroke="rgb(0,0,0)" stroke-width="0.20" />
  <text transform="matrix( 1.000 0.000 0.000 1.000 69.440 460.858 )" style="font-family: sans-serif ; font-weight: normal; font-style: normal; fill: rgb(255,0,0)" font-size="8px" text-anchor="middle" dominant-baseline="hanging">100mm, burn:0.10mm</text>
</g>
<g id="p-1" style="fill:none;stroke-linecap:round;stroke-linejoin:round;">
  <path d="M 22.615 458.070 H 32.090 C 32.145 458.070 32.190 458.025 32.190 457.970 V 454.895 C 32.190 454.795 32.090 454.895 32.190 454.895 H 38.340 C 38.440 454.895 38.340 454.795 38.340 454.895 V 457.970 C 38.340 458.025 38.385 458.070 38.440 458.070 H 44.790 C 44.845 458.070 44.890 458.025 44.890 457.970 V 454.895 C 44.890 454.795 44.790 454.895 44.890 454.895 H 51.040 C 51.140 454.895 51.040 454.795 51.040 454.895 V 457.970 C 51.040 458.025 51.085 458.070 51.140 458.070 H 57.490 C 57.545 458.070 57.590 458.025 57.590 457.970 V 454.895 C 57.590 454.795 57.490 454.895 57.590 454.895 H 63.740 C 63.840 454.895 63.740 454.795 63.740 454.895 V 457.970 C 63.740 458.025 63.785 458.070 63.840 458.070 H 70.190 C 70.245 458.070 70.290 458.025 70.290 457.970 V 454.895 C 70.290 454.795 70.190 454.895 70.290 454.895 H 76.440 C 76.540 454.895 76.440 454.795 76.440 454.895 V 457.970 C 76.440 458.025 76.485 458.070 76.540 458.070 H 82.890 C 82.945 458.070 82.990 458.025 82.990 457.970 V 454.895 C 82.990 454.795 82.890 454.895 82.990 454.895 H 89.140 C 89.240 454.895 89.140 454.795 89.140 454.895 V 457.970 C 89.140 458.025 89.185 458.070 89.240 458.070 H 95.590 C 95.645 458.070 95.690 458.025 95.690 457.970 V 454.895 C 95.690 454.795 95.590 454.895 95.690 454.895 H 101.840 C 101.940 454.895 101.840 454.795 101.840 454.895 V 457.970 C 101.840 458.025 101.885 458.070 101.940 458.070 H 108.290 C 108.345 458.070 108.390 458.025 108.390 457.970 V 454.895 C 108.390 454.795 108.290 454.895 108.390 454.895 H 114.540 C 114.640 454.895 114.540 454.795 114.540 454.895 V 457.970 C 114.540 458.025 114.585 458.070 114.640 458.070 H 120.990 C 121.045 458.070 121.090 458.025 121.090 457.970 V 454.895 C 121.090 454.795 120.990 454.895 121.090 454.895 H 127.240 C 127.340 454.895 127.240 454.795 127.240 454.895 V 457.970 C 127.240 458.025 127.285 458.070 127.340 458.070 H 133.690 C 133.745 458.070 133.790 458.025 133.790 457.970 V 454.895 C 133.790 454.795 133.690 454.895 133.790 454.895 H 139.940 C 140.040 454.895 139.940 454.795 139.940 454.895 V 457.970 C 139.940 458.025 139.985 458.070 140.040 458.070 H 146.390 C 146.445 458.070 146.490 458.025 146.490 457.970 V 454.895 C 146.490 454.795 146.390 454.895 146.490 454.895 H 152.640 C 152.740 454.895 152.640 454.795 152.640 454.895 V 457.970 C 152.640 458.025 152.685 458.070 152.740 458.070 H 159.090 C 159.145 458.070 159.190 458.025 159.190 457.970 V 454.895 C 159.190 454.795 159.090 454.895 159.190 454.895 H 165.340 C 165.440 454.895 165.340 454.795 165.340 454.895 V 457.970 C 165.340 458.025 165.385 458.070 165.440 458.070 H 171.790 C 171.845 458.070 171.890 458.025 171.890 457.970 V 454.895 C 171.890 454.795 171.790 454.895 171.890 454.895 H 178.040 C 178.140 454.895 178.040 454.795 178.040 454.895 V 457.970 C 178.040 458.025 178.085 458.070 178.140 458.070 H 187.615 C 187.670 458.070 187.715 458.025 187.715 457.970 V 454.795 V 444.070 C 187.715 443.970 187.615 444.070 187.715 444.070 H 190.790 C 190.845 444.070 190.890 444.025 190.890 443.970 V 437.620 C 190.890 437.565 190.845 437.520 190.790 437.520 H 187.715 C 187.615 437.520 187.715 437.620 187.715 437.520 V 426.795 C 187.715 426.740 187.670 426.695 187.615 426.695 H 174.965 C 174.910 426.695 174.865 426.740 174.865 426.795 V 429.870 C 174.865 429.970 174.965 429.870 174.865 429.870 H 168.715 C 168.615 429.870 168.715 429.970 168.715 429.870 V 426.795 C 168.715 426.740 168.670 426.695 168.615 426.695 H 162.265 C 162.210 426.695 162.165 426.740 162.165 426.795 V 429.870 C 162.165 429.970 162.265 429.870 162.165 429.870 H 156.015 C 155.915 429.870 156.015 429.970 156.015 429.870 V 426.795 C 156.015 426.740 155.970 426.695 155.915 426.695 H 149.565 C 149.510 426.695 149.465 426.740 149.465 426.795 V 429.870 C 149.465 429.970 149.565 429.870 149.465 429.870 H 143.315 C 143.215 429.870 143.315 429.970 143.315 429.870 V 426.795 C 143.315 426.740 143.270 426.695 143.215 426.695 H 136.865 C 136.810 426.695 136.765 426.740 136.765 426.795 V 429.870 C 136.765 429.970 136.865 429.870 136.765 429.870 H 130.615 C 130.515 429.870 130.615 429.970 130.615 429.870 V 426.795 C 130.615 426.740 130.570 426.695 130.515 426.695 H 124.165 C 124.110 426.695 124.065 426.740 124.065 426.795 V 429.870 C 124.065 429.970 124.165 429.870 124.065 429.870 H 117.915 C 117.815 429.870 117.915 429.970 117.915 429.870 V 426.795 C 117.915 426.740 117.870 426.695 117.815 426.695 H 111.465 C 111.410 426.695 111.365 426.740 111.365 426.795 V 429.870 C 111.365 429.970 111.465 429.870 111.365 429.870 H 105.215 C 105.115 429.870 105.215 429.970 105.215 429.870 V 426.795 C 105.215 426.740 105.170 426.695 105.115 426.695 H 98.765 C 98.710 426.695 98.665 426.740 98.665 426.795 V 429.870 C 98.665 429.970 98.765 429.870 98.665 429.870 H 92.515 C 92.415 429.870 92.515 429.970 92.515 429.870 V 426.795 C 92.515 426.740 92.470 426.695 92.415 426.695 H 86.065 C 86.010 426.695 85.965 426.740 85.965 426.795 V 429.870 C 85.965 429.970 86.065 429.870 85.965 429.870 H 79.815 C 79.715 429.870 79.815 429.970 79.815 429.870 V 426.795 C 79.815 426.740 79.770 426.695 79.715 426.695 H 73.365 C 73.310 426.695 73.265 426.740 73.265 426.795 V 429.870 C 73.265 429.970 73.365 429.870 73.265 429.870 H 67.115 C 67.015 429.870 67.115 429.970 67.115 429.870 V 426.795 C 67.115 426.740 67.070 426.695 67.015 426.695 H 60.665 C 60.610 426.695 60.565 426.740 60.565 426.795 V 429.870 C 60.565 429.970 60.665 429.870 60.565 429.870 H 54.415 C 54.315 429.870 54.415 429.970 54.415 429.870 V 426.795 C 54.415 426.740 54.370 426.695 54.315 426.695 H 47.965 C 47.910 426.695 47.865 426.740 47.865 426.795 V 429.870 C 47.865 429.970 47.965 429.870 47.865 429.870 H 41.715 C 41.615 429.870 41.715 429.970 41.715 429.870 V 426.795 C 41.715 426.740 41.670 426.695 41.615 426.695 H 28.965 C 29.020 426.695 29.065 426.740 29.065 426.795 C 29.065 424.891 28.501 423.030 27.443 421.448 C 26.385 419.865 24.882 418.631 23.123 417.903 C 21.365 417.174 19.429 416.984 17.562 417.355 C 15.695 417.726 13.980 418.643 12.634 419.989 C 11.288 421.335 10.371 423.050 10.000 424.917 C 9.629 426.784 9.819 428.720 10.548 430.478 C 11.276 432.237 12.510 433.740 14.093 434.798 C 15.676 435.856 17.536 436.420 19.440 436.420 H 22.615 C 22.598 436.420 22.580 436.415 22.565 436.407 C 22.550 436.398 22.537 436.385 22.528 436.370 C 22.520 436.355 22.515 436.338 22.515 436.320 C 22.515 436.302 22.520 436.285 22.528 436.270 C 22.537 436.255 22.550 436.242 22.565 436.233 C 22.580 436.225 22.598 436.220 22.615 436.220 C 22.560 436.220 22.515 436.265 22.515 436.320 V 442.283 C 22.515 442.383 22.615 442.283 22.515 442.283 H 19.440 C 19.385 442.283 19.340 442.327 19.340 442.383 V 448.733 C 19.340 448.788 19.385 448.833 19.440 448.833 H 22.515 C 22.615 448.833 22.515 448.733 22.515 448.833 V 454.795 V 457.970 C 22.515 458.025 22.560 458.070 22.615 458.070 Z" stroke="rgb(0,0,0)" stroke-width="0.20" />
  <path d="M 13.190 426.695 C 13.190 425.497 13.534 424.324 14.182 423.316 C 14.830 422.308 15.754 421.508 16.844 421.010 C 17.934 420.512 19.144 420.338 20.330 420.509 C 21.515 420.679 22.627 421.187 23.533 421.972 C 24.438 422.756 25.099 423.785 25.437 424.934 C 25.774 426.084 25.774 427.306 25.437 428.456 C 25.099 429.605 24.438 430.634 23.533 431.418 C 22.627 432.203 21.515 432.711 20.330 432.881 C 19.144 433.052 17.934 432.878 16.844 432.380 C 15.754 431.882 14.830 431.082 14.182 430.074 C 13.534 429.066 13.190 427.893 13.190 426.695 Z" stroke="rgb(0,0,255)" stroke-width="0.20" />
  <path d="M 21.028 422.043 H 22.515 C 22.615 422.043 22.515 421.943 22.515 422.043 V 426.595 C 22.515 426.695 22.615 426.595 22.515 426.595 H 19.540 C 19.440 426.595 19.540 426.695 19.540 426.595 V 422.043 C 19.540 421.943 19.440 422.043 19.540 422.043 H 21.028 Z" stroke="rgb(0,0,255)" stroke-width="0.20" />
</g>
<g id="p-2" style="fill:none;stroke-linecap:round;stroke-linejoin:round;">
  <path d="M 22.615 415.265 C 22.598 415.265 22.580 415.260 22.565 415.252 C 22.550 415.243 22.537 415.230 22.528 415.215 C 22.520 415.200 22.515 415.183 22.515 415.165 C 22.515 415.147 22.520 415.130 22.528 415.115 C 22.537 415.100 22.550 415.087 22.565 415.078 C 22.580 415.070 22.598 415.065 22.615 415.065 H 19.440 C 19.458 415.065 19.475 415.070 19.490 415.078 C 19.505 415.087 19.518 415.100 19.527 415.115 C 19.535 415.130 19.540 415.147 19.540 415.165 C 19.540 415.183 19.535 415.200 19.527 415.215 C 19.518 415.230 19.505 415.243 19.490 415.252 C 19.475 415.260 19.458 415.265 19.440 415.265 C 21.150 415.265 22.830 415.715 24.311 416.570 C 25.792 417.425 27.022 418.655 27.877 420.136 C 28.732 421.617 29.183 423.297 29.183 425.008 C 29.183 425.063 29.227 425.108 29.283 425.108 H 28.965 H 41.615 C 41.670 425.108 41.715 425.063 41.715 425.008 V 421.933 C 41.715 421.833 41.615 421.933 41.715 421.933 H 47.865 C 47.965 421.933 47.865 421.833 47.865 421.933 V 425.008 C 47.865 425.063 47.910 425.108 47.965 425.108 H 54.315 C 54.370 425.108 54.415 425.063 54.415 425.008 V 421.933 C 54.415 421.833 54.315 421.933 54.415 421.933 H 60.565 C 60.665 421.933 60.565 421.833 60.565 421.933 V 425.008 C 60.565 425.063 60.610 425.108 60.665 425.108 H 67.015 C 67.070 425.108 67.115 425.063 67.115 425.008 V 421.933 C 67.115 421.833 67.015 421.933 67.115 421.933 H 73.265 C 73.365 421.933 73.265 421.833 73.265 421.933 V 425.008 C 73.265 425.063 73.310 425.108 73.365 425.108 H 79.715 C 79.770 425.108 79.815 425.063 79.815 425.008 V 421.933 C 79.815 421.833 79.715 421.933 79.815 421.933 H 85.965 C 86.065 421.933 85.965 421.833 85.965 421.933 V 425.008 C 85.965 425.063 86.010 425.108 86.065 425.108 H 92.415 C 92.470 425.108 92.515 425.063 92.515 425.008 V 421.933 C 92.515 421.833 92.415 421.933 92.515 421.933 H 98.665 C 98.765 421.933 98.665 421.833 98.665 421.933 V 425.008 C 98.665 425.063 98.710 425.108 98.765 425.108 H 105.115 C 105.170 425.108 105.215 425.063 105.215 425.008 V 421.933 C 105.215 421.833 105.115 421.933 105.215 421.933 H 111.365 C 111.465 421.933 111.365 421.833 111.365 421.933 V 425.008 C 111.365 425.063 111.410 425.108 111.465 425.108 H 117.815 C 117.870 425.108 117.915 425.063 117.915 425.008 V 421.933 C 117.915 421.833 117.815 421.933 117.915 421.933 H 124.065 C 124.165 421.933 124.065 421.833 124.065 421.933 V 425.008 C 124.065 425.063 124.110 425.108 124.165 425.108 H 130.515 C 130.570 425.108 130.615 425.063 130.615 425.008 V 421.933 C 130.615 421.833 130.515 421.933 130.615 421.933 H 136.765 C 136.865 421.933 136.765 421.833 136.765 421.933 V 425.008 C 136.765 425.063 136.810 425.108 136.865 425.108 H 143.215 C 143.270 425.108 143.315 425.063 143.315 425.008 V 421.933 C 143.315 421.833 143.215 421.933 143.315 421.933 H 149.465 C 149.565 421.933 149.465 421.833 149.465 421.933 V 425.008 C 149.465 425.063 149.510 425.108 149.565 425.108 H 155.915 C 155.970 425.108 156.015 425.063 156.015 425.008 V 421.933 C 156.015 421.833 155.915 421.933 156.015 421.933 H 162.165 C 162.265 421.933 162.165 421.833 162.165 421.933 V 425.008 C 162.165 425.063 162.210 425.108 162.265 425.108 H 168.615 C 168.670 425.108 168.715 425.063 168.715 425.008 V 421.933 C 168.715 421.833 168.615 421.933 168.715 421.933 H 174.865 C 174.965 421.933 174.865 421.833 174.865 421.933 V 425.008 C 174.865 425.063 174.910 425.108 174.965 425.108 H 187.615 C 187.670 425.108 187.715 425.063 187.715 425.008 V 423.283 C 187.715 423.183 187.615 423.283 187.715 423.283 H 190.790 C 190.845 423.283 190.890 423.238 190.890 423.183 V 416.833 C 190.890 416.777 190.845 416.733 190.790 416.733 H 187.715 C 187.615 416.733 187.715 416.833 187.715 416.733 V 415.008 V 411.833 C 187.715 411.777 187.670 411.733 187.615 411.733 H 178.140 C 178.085 411.733 178.040 411.777 178.040 411.833 V 414.908 C 178.040 415.008 178.140 414.908 178.040 414.908 H 171.890 C 171.790 414.908 171.890 415.008 171.890 414.908 V 411.833 C 171.890 411.777 171.845 411.733 171.790 411.733 H 165.440 C 165.385 411.733 165.340 411.777 165.340 411.833 V 414.908 C 165.340 415.008 165.440 414.908 165.340 414.908 H 159.190 C 159.090 414.908 159.190 415.008 159.190 414.908 V 411.833 C 159.190 411.777 159.145 411.733 159.090 411.733 H 152.740 C 152.685 411.733 152.640 411.777 152.640 411.833 V 414.908 C 152.640 415.008 152.740 414.908 152.640 414.908 H 146.490 C 146.390 414.908 146.490 415.008 146.490 414.908 V 411.833 C 146.490 411.777 146.445 411.733 146.390 411.733 H 140.040 C 139.985 411.733 139.940 411.777 139.940 411.833 V 414.908 C 139.940 415.008 140.040 414.908 139.940 414.908 H 133.790 C 133.690 414.908 133.790 415.008 133.790 414.908 V 411.833 C 133.790 411.777 133.745 411.733 133.690 411.733 H 127.340 C 127.285 411.733 127.240 411.777 127.240 411.833 V 414.908 C 127.240 415.008 127.340 414.908 127.240 414.908 H 121.090 C 120.990 414.908 121.090 415.008 121.090 414.908 V 411.833 C 121.090 411.777 121.045 411.733 120.990 411.733 H 114.640 C 114.585 411.733 114.540 411.777 114.540 411.833 V 414.908 C 114.540 415.008 114.640 414.908 114.540 414.908 H 108.390 C 108.290 414.908 108.390 415.008 108.390 414.908 V 411.833 C 108.390 411.777 108.345 411.733 108.290 411.733 H 101.940 C 101.885 411.733 101.840 411.777 101.840 411.833 V 414.908 C 101.840 415.008 101.940 414.908 101.840 414.908 H 95.690 C 95.590 414.908 95.690 415.008 95.690 414.908 V 411.833 C 95.690 411.777 95.645 411.733 95.590 411.733 H 89.240 C 89.185 411.733 89.140 411.777 89.140 411.833 V 414.908 C 89.140 415.008 89.240 414.908 89.140 414.908 H 82.990 C 82.890 414.908 82.990 415.008 82.990 414.908 V 411.833 C 82.990 411.777 82.945 411.733 82.890 411.733 H 76.540 C 76.485 411.733 76.440 411.777 76.440 411.833 V 414.908 C 76.440 415.008 76.540 414.908 76.440 414.908 H 70.290 C 70.190 414.908 70.290 415.008 70.290 414.908 V 411.833 C 70.290 411.777 70.245 411.733 70.190 411.733 H 63.840 C 63.785 411.733 63.740 411.777 63.740 411.833 V 414.908 C 63.740 415.008 63.840 414.908 63.740 414.908 H 57.590 C 57.490 414.908 57.590 415.008 57.590 414.908 V 411.833 C 57.590 411.777 57.545 411.733 57.490 411.733 H 51.140 C 51.085 411.733 51.040 411.777 51.040 411.833 V 414.908 C 51.040 415.008 51.140 414.908 51.040 414.908 H 44.890 C 44.790 414.908 44.890 415.008 44.890 414.908 V 411.833 C 44.890 411.777 44.845 411.733 44.790 411.733 H 38.440 C 38.385 411.733 38.340 411.777 38.340 411.833 V 414.908 C 38.340 415.008 38.440 414.908 38.340 414.908 H 32.190 C 32.090 414.908 32.190 415.008 32.190 414.908 V 411.833 C 32.190 411.777 32.145 411.733 32.090 411.733 H 22.615 C 22.560 411.733 22.515 411.777 22.515 411.833 V 415.008 V 415.086 V 415.165 C 22.515 415.220 22.560 415.265 22.615 415.265 Z" stroke="rgb(0,0,0)" stroke-width="0.20" />
</g>
<g id="p-3" style="fill:none;stroke-linecap:round;stroke-linejoin:round;">
  <path d="M 22.615 410.145 H 32.090 C 32.145 410.145 32.190 410.100 32.190 410.045 V 406.970 C 32.190 406.870 32.090 406.970 32.190 406.970 H 38.340 C 38.440 406.970 38.340 406.870 38.340 406.970 V 410.045 C 38.340 410.100 38.385 410.145 38.440 410.145 H 44.790 C 44.845 410.145 44.890 410.100 44.890 410.045 V 406.970 C 44.890 406.870 44.790 406.970 44.890 406.970 H 51.040 C 51.140 406.970 51.040 406.870 51.040 406.970 V 410.045 C 51.040 410.100 51.085 410.145 51.140 410.145 H 57.490 C 57.545 410.145 57.590 410.100 57.590 410.045 V 406.970 C 57.590 406.870 57.490 406.970 57.590 406.970 H 63.740 C 63.840 406.970 63.740 406.870 63.740 406.970 V 410.045 C 63.740 410.100 63.785 410.145 63.840 410.145 H 70.190 C 70.245 410.145 70.290 410.100 70.290 410.045 V 406.970 C 70.290 406.870 70.190 406.970 70.290 406.970 H 76.440 C 76.540 406.970 76.440 406.870 76.440 406.970 V 410.045 C 76.440 410.100 76.485 410.145 76.540 410.145 H 82.890 C 82.945 410.145 82.990 410.100 82.990 410.045 V 406.970 C 82.990 406.870 82.890 406.970 82.990 406.970 H 89.140 C 89.240 406.970 89.140 406.870 89.140 406.970 V 410.045 C 89.140 410.100 89.185 410.145 89.240 410.145 H 95.590 C 95.645 410.145 95.690 410.100 95.690 410.045 V 406.970 C 95.690 406.870 95.590 406.970 95.690 406.970 H 101.840 C 101.940 406.970 101.840 406.870 101.840 406.970 V 410.045 C 101.840 410.100 101.885 410.145 101.940 410.145 H 108.290 C 108.345 410.145 108.390 410.100 108.390 410.045 V 406.970 C 108.390 406.870 108.290 406.970 108.390 406.970 H 114.540 C 114.640 406.970 114.540 406.870 114.540 406.970 V 410.045 C 114.540 410.100 114.585 410.145 114.640 410.145 H 120.990 C 121.045 410.145 121.090 410.100 121.090 410.045 V 406.970 C 121.090 406.870 120.990 406.970 121.090 406.970 H 127.240 C 127.340 406.970 127.240 406.870 127.240 406.970 V 410.045 C 127.240 410.100 127.285 410.145 127.340 410.145 H 133.690 C 133.745 410.145 133.790 410.100 133.790 410.045 V 406.970 C 133.790 406.870 133.690 406.970 133.790 406.970 H 139.940 C 140.040 406.970 139.940 406.870 139.940 406.970 V 410.045 C 139.940 410.100 139.985 410.145 140.040 410.145 H 146.390 C 146.445 410.145 146.490 410.100 146.490 410.045 V 406.970 C 146.490 406.870 146.390 406.970 146.490 406.970 H 152.640 C 152.740 406.970 152.640 406.870 152.640 406.970 V 410.045 C 152.640 410.100 152.685 410.145 152.740 410.145 H 159.090 C 159.145 410.145 159.190 410.100 159.190 410.045 V 406.970 C 159.190 406.870 159.090 406.970 159.190 406.970 H 165.340 C 165.440 406.970 165.340 406.870 165.340 406.970 V 410.045 C 165.340 410.100 165.385 410.145 165.440 410.145 H 171.790 C 171.845 410.145 171.890 410.100 171.890 410.045 V 406.970 C 171.890 406.870 171.790 406.970 171.890 406.970 H 178.040 C 178.140 406.970 178.040 406.870 178.040 406.970 V 410.045 C 178.040 410.100 178.085 410.145 178.140 410.145 H 187.615 C 187.670 410.145 187.715 410.100 187.715 410.045 V 406.870 V 400.907 C 187.715 400.808 187.615 400.908 187.715 400.907 H 190.790 C 190.845 400.908 190.890 400.863 190.890 400.808 V 394.458 C 190.890 394.402 190.845 394.358 190.790 394.358 H 187.715 C 187.615 394.358 187.715 394.458 187.715 394.357 V 388.395 C 187.715 388.340 187.670 388.295 187.615 388.295 C 187.633 388.295 187.650 388.300 187.665 388.308 C 187.680 388.317 187.693 388.330 187.702 388.345 C 187.710 388.360 187.715 388.377 187.715 388.395 C 187.715 388.413 187.710 388.430 187.702 388.445 C 187.693 388.460 187.680 388.473 187.665 388.482 C 187.650 388.490 187.633 388.495 187.615 388.495 H 190.790 C 192.694 388.495 194.555 387.931 196.137 386.873 C 197.720 385.815 198.954 384.312 199.682 382.553 C 200.411 380.795 200.601 378.859 200.230 376.992 C 199.859 375.125 198.942 373.410 197.596 372.064 C 196.250 370.718 194.535 369.801 192.668 369.430 C 190.801 369.059 188.865 369.249 187.107 369.978 C 185.348 370.706 183.845 371.940 182.787 373.523 C 181.730 375.105 181.165 376.966 181.165 378.870 C 181.165 378.815 181.210 378.770 181.265 378.770 H 168.615 C 168.560 378.770 168.515 378.815 168.515 378.870 V 381.945 C 168.515 382.045 168.615 381.945 168.515 381.945 H 162.365 C 162.265 381.945 162.365 382.045 162.365 381.945 V 378.870 C 162.365 378.815 162.320 378.770 162.265 378.770 H 155.915 C 155.860 378.770 155.815 378.815 155.815 378.870 V 381.945 C 155.815 382.045 155.915 381.945 155.815 381.945 H 149.665 C 149.565 381.945 149.665 382.045 149.665 381.945 V 378.870 C 149.665 378.815 149.620 378.770 149.565 378.770 H 143.215 C 143.160 378.770 143.115 378.815 143.115 378.870 V 381.945 C 143.115 382.045 143.215 381.945 143.115 381.945 H 136.965 C 136.865 381.945 136.965 382.045 136.965 381.945 V 378.870 C 136.965 378.815 136.920 378.770 136.865 378.770 H 130.515 C 130.460 378.770 130.415 378.815 130.415 378.870 V 381.945 C 130.415 382.045 130.515 381.945 130.415 381.945 H 124.265 C 124.165 381.945 124.265 382.045 124.265 381.945 V 378.870 C 124.265 378.815 124.220 378.770 124.165 378.770 H 117.815 C 117.760 378.770 117.715 378.815 117.715 378.870 V 381.945 C 117.715 382.045 117.815 381.945 117.715 381.945 H 111.565 C 111.465 381.945 111.565 382.045 111.565 381.945 V 378.870 C 111.565 378.815 111.520 378.770 111.465 378.770 H 105.115 C 105.060 378.770 105.015 378.815 105.015 378.870 V 381.945 C 105.015 382.045 105.115 381.945 105.015 381.945 H 98.865 C 98.765 381.945 98.865 382.045 98.865 381.945 V 378.870 C 98.865 378.815 98.820 378.770 98.765 378.770 H 92.415 C 92.360 378.770 92.315 378.815 92.315 378.870 V 381.945 C 92.315 382.045 92.415 381.945 92.315 381.945 H 86.165 C 86.065 381.945 86.165 382.045 86.165 381.945 V 378.870 C 86.165 378.815 86.120 378.770 86.065 378.770 H 79.715 C 79.660 378.770 79.615 378.815 79.615 378.870 V 381.945 C 79.615 382.045 79.715 381.945 79.615 381.945 H 73.465 C 73.365 381.945 73.465 382.045 73.465 381.945 V 378.870 C 73.465 378.815 73.420 378.770 73.365 378.770 H 67.015 C 66.960 378.770 66.915 378.815 66.915 378.870 V 381.945 C 66.915 382.045 67.015 381.945 66.915 381.945 H 60.765 C 60.665 381.945 60.765 382.045 60.765 381.945 V 378.870 C 60.765 378.815 60.720 378.770 60.665 378.770 H 54.315 C 54.260 378.770 54.215 378.815 54.215 378.870 V 381.945 C 54.215 382.045 54.315 381.945 54.215 381.945 H 48.065 C 47.965 381.945 48.065 382.045 48.065 381.945 V 378.870 C 48.065 378.815 48.020 378.770 47.965 378.770 H 41.615 C 41.560 378.770 41.515 378.815 41.515 378.870 V 381.945 C 41.515 382.045 41.615 381.945 41.515 381.945 H 35.365 C 35.265 381.945 35.365 382.045 35.365 381.945 V 378.870 C 35.365 378.815 35.320 378.770 35.265 378.770 H 22.615 C 22.560 378.770 22.515 378.815 22.515 378.870 V 389.595 C 22.515 389.695 22.615 389.595 22.515 389.595 H 19.440 C 19.385 389.595 19.340 389.640 19.340 389.695 V 396.045 C 19.340 396.100 19.385 396.145 19.440 396.145 H 22.515 C 22.615 396.145 22.515 396.045 22.515 396.145 V 406.870 V 410.045 C 22.515 410.100 22.560 410.145 22.615 410.145 Z" stroke="rgb(0,0,0)" stroke-width="0.20" />
  <path d="M 184.540 378.770 C 184.540 377.572 184.884 376.399 185.532 375.391 C 186.180 374.383 187.104 373.583 188.194 373.085 C 189.284 372.587 190.494 372.413 191.680 372.584 C 192.865 372.754 193.977 373.262 194.883 374.047 C 195.788 374.831 196.449 375.860 196.787 377.009 C 197.124 378.159 197.124 379.381 196.787 380.531 C 196.449 381.680 195.788 382.709 194.883 383.493 C 193.977 384.278 192.865 384.786 191.680 384.956 C 190.494 385.127 189.284 384.953 188.194 384.455 C 187.104 383.957 186.180 383.157 185.532 382.149 C 184.884 381.141 184.540 379.968 184.540 378.770 Z" stroke="rgb(0,0,255)" stroke-width="0.20" />
  <path d="M 189.203 374.118 H 190.690 C 190.790 374.118 190.690 374.018 190.690 374.118 V 378.670 C 190.690 378.770 190.790 378.670 190.690 378.670 H 187.715 C 187.615 378.670 187.715 378.770 187.715 378.670 V 374.118 C 187.715 374.018 187.615 374.118 187.715 374.118 H 189.203 Z" stroke="rgb(0,0,255)" stroke-width="0.20" />
</g>
<g id="p-4" style="fill:none;stroke-linecap:round;stroke-linejoin:round;">
  <path d="M 22.615 377.183 H 35.265 C 35.320 377.183 35.365 377.138 35.365 377.083 V 374.008 C 35.365 373.908 35.265 374.008 35.365 374.008 H 41.515 C 41.615 374.008 41.515 373.908 41.515 374.008 V 377.083 C 41.515 377.138 41.560 377.183 41.615 377.183 H 47.965 C 48.020 377.183 48.065 377.138 48.065 377.083 V 374.008 C 48.065 373.908 47.965 374.008 48.065 374.008 H 54.215 C 54.315 374.008 54.215 373.908 54.215 374.008 V 377.083 C 54.215 377.138 54.260 377.183 54.315 377.183 H 60.665 C 60.720 377.183 60.765 377.138 60.765 377.083 V 374.008 C 60.765 373.908 60.665 374.008 60.765 374.008 H 66.915 C 67.015 374.008 66.915 373.908 66.915 374.008 V 377.083 C 66.915 377.138 66.960 377.183 67.015 377.183 H 73.365 C 73.420 377.183 73.465 377.138 73.465 377.083 V 374.008 C 73.465 373.908 73.365 374.008 73.465 374.008 H 79.615 C 79.715 374.008 79.615 373.908 79.615 374.008 V 377.083 C 79.615 377.138 79.660 377.183 79.715 377.183 H 86.065 C 86.120 377.183 86.165 377.138 86.165 377.083 V 374.008 C 86.165 373.908 86.065 374.008 86.165 374.008 H 92.315 C 92.415 374.008 92.315 373.908 92.315 374.008 V 377.083 C 92.315 377.138 92.360 377.183 92.415 377.183 H 98.765 C 98.820 377.183 98.865 377.138 98.865 377.083 V 374.008 C 98.865 373.908 98.765 374.008 98.865 374.008 H 105.015 C 105.115 374.008 105.015 373.908 105.015 374.008 V 377.083 C 105.015 377.138 105.060 377.183 105.115 377.183 H 111.465 C 111.520 377.183 111.565 377.138 111.565 377.083 V 374.008 C 111.565 373.908 111.465 374.008 111.565 374.008 H 117.715 C 117.815 374.008 117.715 373.908 117.715 374.008 V 377.083 C 117.715 377.138 117.760 377.183 117.815 377.183 H 124.165 C 124.220 377.183 124.265 377.138 124.265 377.083 V 374.008 C 124.265 373.908 124.165 374.008 124.265 374.008 H 130.415 C 130.515 374.008 130.415 373.908 130.415 374.008 V 377.083 C 130.415 377.138 130.460 377.183 130.515 377.183 H 136.865 C 136.920 377.183 136.965 377.138 136.965 377.083 V 374.008 C 136.965 373.908 136.865 374.008 136.965 374.008 H 143.115 C 143.215 374.008 143.115 373.908 143.115 374.008 V 377.083 C 143.115 377.138 143.160 377.183 143.215 377.183 H 149.565 C 149.620 377.183 149.665 377.138 149.665 377.083 V 374.008 C 149.665 373.908 149.565 374.008 149.665 374.008 H 155.815 C 155.915 374.008 155.815 373.908 155.815 374.008 V 377.083 C 155.815 377.138 155.860 377.183 155.915 377.183 H 162.265 C 162.320 377.183 162.365 377.138 162.365 377.083 V 374.008 C 162.365 373.908 162.265 374.008 162.365 374.008 H 168.515 C 168.615 374.008 168.515 373.908 168.515 374.007 V 377.083 C 168.515 377.138 168.560 377.183 168.615 377.183 H 181.265 H 180.948 C 181.003 377.183 181.048 377.138 181.048 377.083 C 181.048 375.372 181.498 373.692 182.353 372.211 C 183.208 370.730 184.438 369.500 185.919 368.645 C 187.400 367.790 189.080 367.340 190.790 367.340 C 190.773 367.340 190.755 367.335 190.740 367.327 C 190.725 367.318 190.712 367.305 190.703 367.290 C 190.695 367.275 190.690 367.258 190.690 367.240 C 190.690 367.222 190.695 367.205 190.703 367.190 C 190.712 367.175 190.725 367.162 190.740 367.153 C 190.755 367.145 190.773 367.140 190.790 367.140 H 187.615 C 187.633 367.140 187.650 367.145 187.665 367.153 C 187.680 367.162 187.693 367.175 187.702 367.190 C 187.710 367.205 187.715 367.222 187.715 367.240 C 187.715 367.258 187.710 367.275 187.702 367.290 C 187.693 367.305 187.680 367.318 187.665 367.327 C 187.650 367.335 187.633 367.340 187.615 367.340 C 187.670 367.340 187.715 367.295 187.715 367.240 V 367.161 V 367.083 V 363.908 C 187.715 363.852 187.670 363.808 187.615 363.808 H 178.140 C 178.085 363.808 178.040 363.852 178.040 363.908 V 366.983 C 178.040 367.083 178.140 366.983 178.040 366.983 H 171.890 C 171.790 366.983 171.890 367.083 171.890 366.983 V 363.908 C 171.890 363.852 171.845 363.808 171.790 363.808 H 165.440 C 165.385 363.808 165.340 363.852 165.340 363.908 V 366.983 C 165.340 367.083 165.440 366.983 165.340 366.983 H 159.190 C 159.090 366.983 159.190 367.083 159.190 366.983 V 363.908 C 159.190 363.852 159.145 363.808 159.090 363.808 H 152.740 C 152.685 363.808 152.640 363.852 152.640 363.908 V 366.982 C 152.640 367.083 152.740 366.983 152.640 366.982 H 146.490 C 146.390 366.983 146.490 367.083 146.490 366.983 V 363.908 C 146.490 363.852 146.445 363.808 146.390 363.808 H 140.040 C 139.985 363.808 139.940 363.852 139.940 363.908 V 366.983 C 139.940 367.083 140.040 366.983 139.940 366.983 H 133.790 C 133.690 366.983 133.790 367.083 133.790 366.982 V 363.908 C 133.790 363.852 133.745 363.808 133.690 363.808 H 127.340 C 127.285 363.808 127.240 363.852 127.240 363.908 V 366.982 C 127.240 367.083 127.340 366.983 127.240 366.982 H 121.090 C 120.990 366.982 121.090 367.082 121.090 366.982 V 363.907 C 121.090 363.852 121.045 363.808 120.990 363.808 H 114.640 C 114.585 363.807 114.540 363.852 114.540 363.907 V 366.983 C 114.540 367.082 114.640 366.982 114.540 366.983 H 108.390 C 108.290 366.982 108.390 367.082 108.390 366.982 V 363.907 C 108.390 363.852 108.345 363.807 108.290 363.807 H 101.940 C 101.885 363.807 101.840 363.852 101.840 363.907 V 366.983 C 101.840 367.082 101.940 366.982 101.840 366.983 H 95.690 C 95.590 366.982 95.690 367.082 95.690 366.982 V 363.907 C 95.690 363.852 95.645 363.807 95.590 363.807 H 89.240 C 89.185 363.807 89.140 363.852 89.140 363.907 V 366.982 C 89.140 367.082 89.240 366.982 89.140 366.982 H 82.990 C 82.890 366.982 82.990 367.082 82.990 366.982 V 363.907 C 82.990 363.852 82.945 363.807 82.890 363.807 H 76.540 C 76.485 363.807 76.440 363.852 76.440 363.907 V 366.983 C 76.440 367.082 76.540 366.982 76.440 366.983 H 70.290 C 70.190 366.982 70.290 367.082 70.290 366.982 V 363.907 C 70.290 363.852 70.245 363.807 70.190 363.807 H 63.840 C 63.785 363.807 63.740 363.852 63.740 363.907 V 366.982 C 63.740 367.082 63.840 366.982 63.740 366.982 H 57.590 C 57.490 366.982 57.590 367.082 57.590 366.982 V 363.907 C 57.590 363.852 57.545 363.807 57.490 363.807 H 51.140 C 51.085 363.807 51.040 363.852 51.040 363.907 V 366.982 C 51.040 367.082 51.140 366.982 51.040 366.982 H 44.890 C 44.790 366.982 44.890 367.082 44.890 366.982 V 363.907 C 44.890 363.852 44.845 363.807 44.790 363.807 H 38.440 C 38.385 363.807 38.340 363.852 38.340 363.907 V 366.982 C 38.340 367.082 38.440 366.982 38.340 366.982 H 32.190 C 32.090 366.982 32.190 367.082 32.190 366.982 V 363.907 C 32.190 363.852 32.145 363.807 32.090 363.807 H 22.615 C 22.560 363.807 22.515 363.852 22.515 363.907 V 367.082 V 368.807 C 22.515 368.907 22.615 368.807 22.515 368.807 H 19.440 C 19.385 368.807 19.340 368.852 19.340 368.907 V 375.257 C 19.340 375.313 19.385 375.357 19.440 375.357 H 22.515 C 22.615 375.357 22.515 375.257 22.515 375.357 V 377.082 C 22.515 377.138 22.560 377.182 22.615 377.182 Z" stroke="rgb(0,0,0)" stroke-width="0.20" />
</g>
<g id="p-5" style="fill:none;stroke-linecap:round;stroke-linejoin:round;">
  <path d="M 22.615 362.220 H 29.140 C 29.195 362.220 29.240 362.175 29.240 362.120 V 359.045 C 29.240 358.945 29.140 359.045 29.240 359.045 H 35.390 C 35.490 359.045 35.390 358.945 35.390 359.045 V 362.120 C 35.390 362.175 35.435 362.220 35.490 362.220 H 41.840 C 41.895 362.220 41.940 362.175 41.940 362.120 V 359.045 C 41.940 358.945 41.840 359.045 41.940 359.045 H 48.090 C 48.190 359.045 48.090 358.945 48.090 359.045 V 362.120 C 48.090 362.175 48.135 362.220 48.190 362.220 H 54.540 C 54.595 362.220 54.640 362.175 54.640 362.120 V 359.045 C 54.640 358.945 54.540 359.045 54.640 359.045 H 60.790 C 60.890 359.045 60.790 358.945 60.790 359.045 V 362.120 C 60.790 362.175 60.835 362.220 60.890 362.220 H 67.240 C 67.295 362.220 67.340 362.175 67.340 362.120 V 359.045 C 67.340 358.945 67.240 359.045 67.340 359.045 H 73.490 C 73.590 359.045 73.490 358.945 73.490 359.045 V 362.120 C 73.490 362.175 73.535 362.220 73.590 362.220 H 79.940 C 79.995 362.220 80.040 362.175 80.040 362.120 V 359.045 C 80.040 358.945 79.940 359.045 80.040 359.045 H 86.190 C 86.290 359.045 86.190 358.945 86.190 359.045 V 362.120 C 86.190 362.175 86.235 362.220 86.290 362.220 H 92.640 C 92.695 362.220 92.740 362.175 92.740 362.120 V 359.045 C 92.740 358.945 92.640 359.045 92.740 359.045 H 98.890 C 98.990 359.045 98.890 358.945 98.890 359.045 V 362.120 C 98.890 362.175 98.935 362.220 98.990 362.220 H 105.340 C 105.395 362.220 105.440 362.175 105.440 362.120 V 359.045 C 105.440 358.945 105.340 359.045 105.440 359.045 H 111.590 C 111.690 359.045 111.590 358.945 111.590 359.045 V 362.120 C 111.590 362.175 111.635 362.220 111.690 362.220 H 118.040 C 118.095 362.220 118.140 362.175 118.140 362.120 V 359.045 C 118.140 358.945 118.040 359.045 118.140 359.045 H 124.290 C 124.390 359.045 124.290 358.945 124.290 359.045 V 362.120 C 124.290 362.175 124.335 362.220 124.390 362.220 H 130.740 C 130.795 362.220 130.840 362.175 130.840 362.120 V 359.045 C 130.840 358.945 130.740 359.045 130.840 359.045 H 136.990 C 137.090 359.045 136.990 358.945 136.990 359.045 V 362.120 C 136.990 362.175 137.035 362.220 137.090 362.220 H 143.615 H 146.790 C 146.845 362.220 146.890 362.175 146.890 362.120 V 358.945 V 348.120 C 146.890 348.065 146.845 348.020 146.790 348.020 H 143.715 C 143.615 348.020 143.715 348.120 143.715 348.020 V 341.870 C 143.715 341.770 143.615 341.870 143.715 341.870 H 146.790 C 146.845 341.870 146.890 341.825 146.890 341.770 V 330.945 C 146.890 330.890 146.845 330.845 146.790 330.845 H 143.615 H 22.615 H 19.440 C 19.385 330.845 19.340 330.890 19.340 330.945 V 341.770 C 19.340 341.825 19.385 341.870 19.440 341.870 H 22.515 C 22.615 341.870 22.515 341.770 22.515 341.870 V 348.020 C 22.515 348.120 22.615 348.020 22.515 348.020 H 19.440 C 19.385 348.020 19.340 348.065 19.340 348.120 V 358.945 V 362.120 C 19.340 362.175 19.385 362.220 19.440 362.220 H 22.615 Z" stroke="rgb(0,0,0)" stroke-width="0.20" />
</g>
<g id="p-6" style="fill:none;stroke-linecap:round;stroke-linejoin:round;">
  <path d="M 22.615 329.258 H 29.140 C 29.195 329.258 29.240 329.213 29.240 329.158 V 326.083 C 29.240 325.983 29.140 326.083 29.240 326.083 H 35.390 C 35.490 326.083 35.390 325.983 35.390 326.083 V 329.158 C 35.390 329.213 35.435 329.258 35.490 329.258 H 41.840 C 41.895 329.258 41.940 329.213 41.940 329.158 V 326.083 C 41.940 325.983 41.840 326.083 41.940 326.083 H 48.090 C 48.190 326.083 48.090 325.983 48.090 326.083 V 329.158 C 48.090 329.213 48.135 329.258 48.190 329.258 H 54.540 C 54.595 329.258 54.640 329.213 54.640 329.158 V 326.083 C 54.640 325.983 54.540 326.083 54.640 326.083 H 60.790 C 60.890 326.083 60.790 325.983 60.790 326.083 V 329.158 C 60.790 329.213 60.835 329.258 60.890 329.258 H 67.240 C 67.295 329.258 67.340 329.213 67.340 329.158 V 326.083 C 67.340 325.983 67.240 326.083 67.340 326.083 H 73.490 C 73.590 326.083 73.490 325.983 73.490 326.083 V 329.158 C 73.490 329.213 73.535 329.258 73.590 329.258 H 79.940 C 79.995 329.258 80.040 329.213 80.040 329.158 V 326.082 C 80.040 325.983 79.940 326.083 80.040 326.082 H 86.190 C 86.290 326.083 86.190 325.983 86.190 326.083 V 329.158 C 86.190 329.213 86.235 329.258 86.290 329.258 H 92.640 C 92.695 329.258 92.740 329.213 92.740 329.158 V 326.083 C 92.740 325.983 92.640 326.083 92.740 326.083 H 98.890 C 98.990 326.083 98.890 325.983 98.890 326.083 V 329.158 C 98.890 329.213 98.935 329.258 98.990 329.258 H 105.340 C 105.395 329.258 105.440 329.213 105.440 329.158 V 326.083 C 105.440 325.983 105.340 326.083 105.440 326.083 H 111.590 C 111.690 326.083 111.590 325.983 111.590 326.083 V 329.158 C 111.590 329.213 111.635 329.258 111.690 329.258 H 118.040 C 118.095 329.258 118.140 329.213 118.140 329.158 V 326.083 C 118.140 325.983 118.040 326.083 118.140 326.083 H 124.290 C 124.390 326.083 124.290 325.983 124.290 326.083 V 329.158 C 124.290 329.213 124.335 329.258 124.390 329.258 H 130.740 C 130.795 329.258 130.840 329.213 130.840 329.158 V 326.082 C 130.840 325.983 130.740 326.083 130.840 326.082 H 136.990 C 137.090 326.083 136.990 325.983 136.990 326.083 V 329.158 C 136.990 329.213 137.035 329.258 137.090 329.258 H 143.615 H 146.790 C 146.845 329.258 146.890 329.213 146.890 329.158 V 325.983 V 319.920 C 146.890 319.865 146.845 319.820 146.790 319.820 H 143.715 C 143.615 319.820 143.715 319.920 143.715 319.820 V 313.670 C 143.715 313.570 143.615 313.670 143.715 313.670 H 146.790 C 146.845 313.670 146.890 313.625 146.890 313.570 V 307.508 C 146.890 307.452 146.845 307.408 146.790 307.408 H 143.715 C 143.615 307.408 143.715 307.508 143.715 307.408 V 297.983 C 143.715 297.927 143.670 297.883 143.615 297.883 H 22.615 C 22.560 297.883 22.515 297.927 22.515 297.983 V 307.408 C 22.515 307.508 22.615 307.408 22.515 307.408 H 19.440 C 19.385 307.408 19.340 307.452 19.340 307.508 V 313.570 C 19.340 313.625 19.385 313.670 19.440 313.670 H 22.515 C 22.615 313.670 22.515 313.570 22.515 313.670 V 319.820 C 22.515 319.920 22.615 319.820 22.515 319.820 H 19.440 C 19.385 319.820 19.340 319.865 19.340 319.920 V 325.983 V 329.158 C 19.340 329.213 19.385 329.258 19.440 329.258 H 22.615 Z" stroke="rgb(0,0,0)" stroke-width="0.20" />
</g>
<g id="p-7" style="fill:none;stroke-linecap:round;stroke-linejoin:round;">
  <path d="M 22.615 296.295 H 29.140 C 29.195 296.295 29.240 296.250 29.240 296.195 V 293.120 C 29.240 293.020 29.140 293.120 29.240 293.120 H 35.390 C 35.490 293.120 35.390 293.020 35.390 293.120 V 296.195 C 35.390 296.250 35.435 296.295 35.490 296.295 H 41.840 C 41.895 296.295 41.940 296.250 41.940 296.195 V 293.120 C 41.940 293.020 41.840 293.120 41.940 293.120 H 48.090 C 48.190 293.120 48.090 293.020 48.090 293.120 V 296.195 C 48.090 296.250 48.135 296.295 48.190 296.295 H 54.540 C 54.595 296.295 54.640 296.250 54.640 296.195 V 293.120 C 54.640 293.020 54.540 293.120 54.640 293.120 H 60.790 C 60.890 293.120 60.790 293.020 60.790 293.120 V 296.195 C 60.790 296.250 60.835 296.295 60.890 296.295 H 67.240 C 67.295 296.295 67.340 296.250 67.340 296.195 V 293.120 C 67.340 293.020 67.240 293.120 67.340 293.120 H 73.490 C 73.590 293.120 73.490 293.020 73.490 293.120 V 296.195 C 73.490 296.250 73.535 296.295 73.590 296.295 H 79.940 C 79.995 296.295 80.040 296.250 80.040 296.195 V 293.120 C 80.040 293.020 79.940 293.120 80.040 293.120 H 86.190 C 86.290 293.120 86.190 293.020 86.190 293.120 V 296.195 C 86.190 296.250 86.235 296.295 86.290 296.295 H 92.640 C 92.695 296.295 92.740 296.250 92.740 296.195 V 293.120 C 92.740 293.020 92.640 293.120 92.740 293.120 H 98.890 C 98.990 293.120 98.890 293.020 98.890 293.120 V 296.195 C 98.890 296.250 98.935 296.295 98.990 296.295 H 105.340 C 105.395 296.295 105.440 296.250 105.440 296.195 V 293.120 C 105.440 293.020 105.340 293.120 105.440 293.120 H 111.590 C 111.690 293.120 111.590 293.020 111.590 293.120 V 296.195 C 111.590 296.250 111.635 296.295 111.690 296.295 H 118.040 C 118.095 296.295 118.140 296.250 118.140 296.195 V 293.120 C 118.140 293.020 118.040 293.120 118.140 293.120 H 124.290 C 124.390 293.120 124.290 293.020 124.290 293.120 V 296.195 C 124.290 296.250 124.335 296.295 124.390 296.295 H 130.740 C 130.795 296.295 130.840 296.250 130.840 296.195 V 293.120 C 130.840 293.020 130.740 293.120 130.840 293.120 H 136.990 C 137.090 293.120 136.990 293.020 136.990 293.120 V 296.195 C 136.990 296.250 137.035 296.295 137.090 296.295 H 143.615 H 146.790 C 146.845 296.295 146.890 296.250 146.890 296.195 V 293.020 V 291.195 C 146.890 291.140 146.845 291.095 146.790 291.095 H 143.715 C 143.615 291.095 143.715 291.195 143.715 291.095 V 284.945 C 143.715 284.845 143.615 284.945 143.715 284.945 H 146.790 C 146.845 284.945 146.890 284.900 146.890 284.845 V 283.020 C 146.890 282.965 146.845 282.920 146.790 282.920 H 143.615 H 22.615 H 19.440 C 19.385 282.920 19.340 282.965 19.340 283.020 V 284.845 C 19.340 284.900 19.385 284.945 19.440 284.945 H 22.515 C 22.615 284.945 22.515 284.845 22.515 284.945 V 291.095 C 22.515 291.195 22.615 291.095 22.515 291.095 H 19.440 C 19.385 291.095 19.340 291.140 19.340 291.195 V 293.020 V 296.195 C 19.340 296.250 19.385 296.295 19.440 296.295 H 22.615 Z" stroke="rgb(0,0,0)" stroke-width="0.20" />
</g>
<g id="p-8" style="fill:none;stroke-linecap:round;stroke-linejoin:round;">
  <path d="M 22.615 281.333 H 29.140 C 29.195 281.333 29.240 281.288 29.240 281.233 V 278.158 C 29.240 278.058 29.140 278.158 29.240 278.158 H 35.390 C 35.490 278.158 35.390 278.058 35.390 278.158 V 281.233 C 35.390 281.288 35.435 281.333 35.490 281.333 H 41.840 C 41.895 281.333 41.940 281.288 41.940 281.233 V 278.158 C 41.940 278.058 41.840 278.158 41.940 278.158 H 48.090 C 48.190 278.158 48.090 278.058 48.090 278.158 V 281.233 C 48.090 281.288 48.135 281.333 48.190 281.333 H 54.540 C 54.595 281.333 54.640 281.288 54.640 281.233 V 278.158 C 54.640 278.058 54.540 278.158 54.640 278.158 H 60.790 C 60.890 278.158 60.790 278.058 60.790 278.158 V 281.233 C 60.790 281.288 60.835 281.333 60.890 281.333 H 67.240 C 67.295 281.333 67.340 281.288 67.340 281.233 V 278.157 C 67.340 278.058 67.240 278.158 67.340 278.157 H 73.490 C 73.590 278.158 73.490 278.058 73.490 278.158 V 281.233 C 73.490 281.288 73.535 281.333 73.590 281.333 H 79.940 C 79.995 281.333 80.040 281.288 80.040 281.233 V 278.158 C 80.040 278.058 79.940 278.158 80.040 278.158 H 86.190 C 86.290 278.158 86.190 278.058 86.190 278.158 V 281.233 C 86.190 281.288 86.235 281.333 86.290 281.333 H 92.640 C 92.695 281.333 92.740 281.288 92.740 281.233 V 278.158 C 92.740 278.058 92.640 278.158 92.740 278.158 H 98.890 C 98.990 278.158 98.890 278.058 98.890 278.158 V 281.233 C 98.890 281.288 98.935 281.333 98.990 281.333 H 105.340 C 105.395 281.333 105.440 281.288 105.440 281.233 V 278.158 C 105.440 278.058 105.340 278.158 105.440 278.158 H 111.590 C 111.690 278.158 111.590 278.058 111.590 278.158 V 281.233 C 111.590 281.288 111.635 281.333 111.690 281.333 H 118.040 C 118.095 281.333 118.140 281.288 118.140 281.233 V 278.158 C 118.140 278.058 118.040 278.158 118.140 278.158 H 124.290 C 124.390 278.158 124.290 278.058 124.290 278.158 V 281.233 C 124.290 281.288 124.335 281.333 124.390 281.333 H 130.740 C 130.795 281.333 130.840 281.288 130.840 281.233 V 278.158 C 130.840 278.058 130.740 278.158 130.840 278.158 H 136.990 C 137.090 278.158 136.990 278.058 136.990 278.158 V 281.233 C 136.990 281.288 137.035 281.333 137.090 281.333 H 143.615 H 146.790 C 146.845 281.333 146.890 281.288 146.890 281.233 V 278.058 V 277.979 V 277.900 C 146.890 277.845 146.845 277.800 146.790 277.800 H 143.715 C 143.615 277.800 143.715 277.900 143.715 277.800 V 273.227 C 143.715 273.127 143.615 273.227 143.715 273.227 H 146.790 C 146.845 273.227 146.890 273.182 146.890 273.127 V 268.375 C 146.890 268.320 146.845 268.275 146.790 268.275 H 137.090 C 137.035 268.275 136.990 268.320 136.990 268.375 V 271.450 C 136.990 271.550 137.090 271.450 136.990 271.450 H 130.840 C 130.740 271.450 130.840 271.550 130.840 271.450 V 268.375 C 130.840 268.320 130.795 268.275 130.740 268.275 H 124.390 C 124.335 268.275 124.290 268.320 124.290 268.375 V 271.450 C 124.290 271.550 124.390 271.450 124.290 271.450 H 118.140 C 118.040 271.450 118.140 271.550 118.140 271.450 V 268.375 C 118.140 268.320 118.095 268.275 118.040 268.275 H 111.690 C 111.635 268.275 111.590 268.320 111.590 268.375 V 271.450 C 111.590 271.550 111.690 271.450 111.590 271.450 H 105.440 C 105.340 271.450 105.440 271.550 105.440 271.450 V 268.375 C 105.440 268.320 105.395 268.275 105.340 268.275 H 98.990 C 98.935 268.275 98.890 268.320 98.890 268.375 V 271.450 C 98.890 271.550 98.990 271.450 98.890 271.450 H 92.740 C 92.640 271.450 92.740 271.550 92.740 271.450 V 268.375 C 92.740 268.320 92.695 268.275 92.640 268.275 H 86.290 C 86.235 268.275 86.190 268.320 86.190 268.375 V 271.450 C 86.190 271.550 86.290 271.450 86.190 271.450 H 80.040 C 79.940 271.450 80.040 271.550 80.040 271.450 V 268.375 C 80.040 268.320 79.995 268.275 79.940 268.275 H 73.590 C 73.535 268.275 73.490 268.320 73.490 268.375 V 271.450 C 73.490 271.550 73.590 271.450 73.490 271.450 H 67.340 C 67.240 271.450 67.340 271.550 67.340 271.450 V 268.375 C 67.340 268.320 67.295 268.275 67.240 268.275 H 60.890 C 60.835 268.275 60.790 268.320 60.790 268.375 V 271.450 C 60.790 271.550 60.890 271.450 60.790 271.450 H 54.640 C 54.540 271.450 54.640 271.550 54.640 271.450 V 268.375 C 54.640 268.320 54.595 268.275 54.540 268.275 H 48.190 C 48.135 268.275 48.090 268.320 48.090 268.375 V 271.450 C 48.090 271.550 48.190 271.450 48.090 271.450 H 41.940 C 41.840 271.450 41.940 271.550 41.940 271.450 V 268.375 C 41.940 268.320 41.895 268.275 41.840 268.275 H 35.490 C 35.435 268.275 35.390 268.320 35.390 268.375 V 271.450 C 35.390 271.550 35.490 271.450 35.390 271.450 H 29.240 C 29.140 271.450 29.240 271.550 29.240 271.450 V 268.375 C 29.240 268.320 29.195 268.275 29.140 268.275 H 19.440 C 19.385 268.275 19.340 268.320 19.340 268.375 V 273.127 C 19.340 273.182 19.385 273.227 19.440 273.227 H 22.515 C 22.615 273.227 22.515 273.127 22.515 273.227 V 277.800 C 22.515 277.900 22.615 277.800 22.515 277.800 H 19.440 C 19.385 277.800 19.340 277.845 19.340 277.900 V 277.979 V 278.058 V 281.233 C 19.340 281.288 19.385 281.333 19.440 281.333 H 22.615 Z" stroke="rgb(0,0,0)" stroke-width="0.20" />
</g>
<g id="p-9" style="fill:none;stroke-linecap:round;stroke-linejoin:round;">
  <path d="M 22.615 263.513 H 31.990 C 32.090 263.513 31.990 263.413 31.990 263.513 V 266.588 C 31.990 266.643 32.035 266.688 32.090 266.688 H 38.440 C 38.495 266.688 38.540 266.643 38.540 266.588 V 263.513 C 38.540 263.413 38.440 263.513 38.540 263.513 H 44.690 C 44.790 263.513 44.690 263.413 44.690 263.513 V 266.588 C 44.690 266.643 44.735 266.688 44.790 266.688 H 51.140 C 51.195 266.688 51.240 266.643 51.240 266.588 V 263.513 C 51.240 263.413 51.140 263.513 51.240 263.513 H 57.390 C 57.490 263.513 57.390 263.413 57.390 263.513 V 266.588 C 57.390 266.643 57.435 266.688 57.490 266.688 H 63.840 C 63.895 266.688 63.940 266.643 63.940 266.588 V 263.513 C 63.940 263.413 63.840 263.513 63.940 263.513 H 70.090 C 70.190 263.513 70.090 263.413 70.090 263.513 V 266.588 C 70.090 266.643 70.135 266.688 70.190 266.688 H 76.540 C 76.595 266.688 76.640 266.643 76.640 266.588 V 263.513 C 76.640 263.413 76.540 263.513 76.640 263.513 H 82.790 C 82.890 263.513 82.790 263.413 82.790 263.513 V 266.588 C 82.790 266.643 82.835 266.688 82.890 266.688 H 89.240 C 89.295 266.688 89.340 266.643 89.340 266.588 V 263.513 C 89.340 263.413 89.240 263.513 89.340 263.513 H 95.490 C 95.590 263.513 95.490 263.413 95.490 263.513 V 266.588 C 95.490 266.643 95.535 266.688 95.590 266.688 H 101.940 C 101.995 266.688 102.040 266.643 102.040 266.588 V 263.513 C 102.040 263.413 101.940 263.513 102.040 263.513 H 108.190 C 108.290 263.513 108.190 263.413 108.190 263.513 V 266.588 C 108.190 266.643 108.235 266.688 108.290 266.688 H 114.640 C 114.695 266.688 114.740 266.643 114.740 266.588 V 263.513 C 114.740 263.413 114.640 263.513 114.740 263.513 H 120.890 C 120.990 263.513 120.890 263.413 120.890 263.513 V 266.588 C 120.890 266.643 120.935 266.688 120.990 266.688 H 127.340 C 127.395 266.688 127.440 266.643 127.440 266.588 V 263.513 C 127.440 263.413 127.340 263.513 127.440 263.513 H 133.590 C 133.690 263.513 133.590 263.413 133.590 263.513 V 266.588 C 133.590 266.643 133.635 266.688 133.690 266.688 H 140.040 C 140.095 266.688 140.140 266.643 140.140 266.588 V 263.513 C 140.140 263.413 140.040 263.513 140.140 263.513 H 146.290 C 146.390 263.513 146.290 263.413 146.290 263.513 V 266.588 C 146.290 266.643 146.335 266.688 146.390 266.688 H 152.740 C 152.795 266.688 152.840 266.643 152.840 266.588 V 263.513 C 152.840 263.413 152.740 263.513 152.840 263.513 H 158.990 C 159.090 263.513 158.990 263.413 158.990 263.513 V 266.588 C 158.990 266.643 159.035 266.688 159.090 266.688 H 165.440 C 165.495 266.688 165.540 266.643 165.540 266.588 V 263.513 C 165.540 263.413 165.440 263.513 165.540 263.513 H 171.690 C 171.790 263.513 171.690 263.413 171.690 263.513 V 266.588 C 171.690 266.643 171.735 266.688 171.790 266.688 H 178.140 C 178.195 266.688 178.240 266.643 178.240 266.588 V 263.513 C 178.240 263.413 178.140 263.513 178.240 263.513 H 187.615 C 187.670 263.513 187.715 263.468 187.715 263.413 V 256.988 C 187.715 256.888 187.615 256.988 187.715 256.988 H 190.790 C 190.845 256.988 190.890 256.943 190.890 256.888 V 250.538 C 190.890 250.482 190.845 250.438 190.790 250.438 H 187.715 C 187.615 250.438 187.715 250.538 187.715 250.438 V 244.288 C 187.715 244.188 187.615 244.288 187.715 244.288 H 190.790 C 190.845 244.288 190.890 244.243 190.890 244.188 V 237.838 C 190.890 237.782 190.845 237.738 190.790 237.738 H 187.715 C 187.615 237.738 187.715 237.838 187.715 237.738 V 231.588 C 187.715 231.488 187.615 231.588 187.715 231.588 H 190.790 C 190.845 231.588 190.890 231.543 190.890 231.488 V 225.138 C 190.890 225.082 190.845 225.038 190.790 225.038 H 187.715 C 187.615 225.038 187.715 225.138 187.715 225.037 V 218.888 C 187.715 218.788 187.615 218.888 187.715 218.888 H 190.790 C 190.845 218.888 190.890 218.843 190.890 218.788 V 212.438 C 190.890 212.382 190.845 212.338 190.790 212.338 H 187.715 C 187.615 212.338 187.715 212.438 187.715 212.338 V 206.188 C 187.715 206.088 187.615 206.188 187.715 206.188 H 190.790 C 190.845 206.188 190.890 206.143 190.890 206.088 V 199.738 C 190.890 199.682 190.845 199.638 190.790 199.638 H 187.715 C 187.615 199.638 187.715 199.738 187.715 199.638 V 193.488 C 187.715 193.388 187.615 193.488 187.715 193.488 H 190.790 C 190.845 193.488 190.890 193.443 190.890 193.388 V 187.038 C 190.890 186.982 190.845 186.938 190.790 186.938 H 187.715 C 187.615 186.938 187.715 187.038 187.715 186.938 V 180.788 C 187.715 180.688 187.615 180.788 187.715 180.788 H 190.790 C 190.845 180.788 190.890 180.743 190.890 180.688 V 174.338 C 190.890 174.282 190.845 174.238 190.790 174.238 H 187.715 C 187.615 174.238 187.715 174.338 187.715 174.238 V 168.088 C 187.715 167.988 187.615 168.088 187.715 168.088 H 190.790 C 190.845 168.088 190.890 168.043 190.890 167.988 V 161.638 C 190.890 161.582 190.845 161.538 190.790 161.538 H 187.715 C 187.615 161.538 187.715 161.638 187.715 161.538 V 155.388 C 187.715 155.288 187.615 155.388 187.715 155.388 H 190.790 C 190.845 155.388 190.890 155.343 190.890 155.288 V 148.938 C 190.890 148.882 190.845 148.838 190.790 148.838 H 187.715 C 187.615 148.838 187.715 148.938 187.715 148.838 V 142.413 C 187.715 142.357 187.670 142.313 187.615 142.313 H 178.240 C 178.140 142.313 178.240 142.413 178.240 142.313 V 139.238 C 178.240 139.182 178.195 139.138 178.140 139.138 H 171.790 C 171.735 139.138 171.690 139.182 171.690 139.238 V 142.313 C 171.690 142.413 171.790 142.313 171.690 142.313 H 165.540 C 165.440 142.313 165.540 142.413 165.540 142.313 V 139.238 C 165.540 139.182 165.495 139.138 165.440 139.138 H 159.090 C 159.035 139.138 158.990 139.182 158.990 139.238 V 142.313 C 158.990 142.413 159.090 142.313 158.990 142.313 H 152.840 C 152.740 142.313 152.840 142.413 152.840 142.313 V 139.238 C 152.840 139.182 152.795 139.138 152.740 139.138 H 146.390 C 146.335 139.138 146.290 139.182 146.290 139.238 V 142.313 C 146.290 142.413 146.390 142.313 146.290 142.313 H 140.140 C 140.040 142.313 140.140 142.413 140.140 142.313 V 139.238 C 140.140 139.182 140.095 139.138 140.040 139.138 H 133.690 C 133.635 139.138 133.590 139.182 133.590 139.238 V 142.313 C 133.590 142.413 133.690 142.313 133.590 142.313 H 127.440 C 127.340 142.313 127.440 142.413 127.440 142.313 V 139.238 C 127.440 139.182 127.395 139.138 127.340 139.138 H 120.990 C 120.935 139.138 120.890 139.182 120.890 139.238 V 142.313 C 120.890 142.413 120.990 142.313 120.890 142.313 H 114.740 C 114.640 142.313 114.740 142.413 114.740 142.313 V 139.238 C 114.740 139.182 114.695 139.138 114.640 139.138 H 108.290 C 108.235 139.138 108.190 139.182 108.190 139.238 V 142.313 C 108.190 142.413 108.290 142.313 108.190 142.313 H 102.040 C 101.940 142.313 102.040 142.413 102.040 142.313 V 139.238 C 102.040 139.182 101.995 139.138 101.940 139.138 H 95.590 C 95.535 139.138 95.490 139.182 95.490 139.238 V 142.313 C 95.490 142.413 95.590 142.313 95.490 142.313 H 89.340 C 89.240 142.313 89.340 142.413 89.340 142.313 V 139.238 C 89.340 139.182 89.295 139.138 89.240 139.138 H 82.890 C 82.835 139.138 82.790 139.182 82.790 139.238 V 142.313 C 82.790 142.413 82.890 142.313 82.790 142.313 H 76.640 C 76.540 142.313 76.640 142.413 76.640 142.313 V 139.238 C 76.640 139.182 76.595 139.138 76.540 139.138 H 70.190 C 70.135 139.138 70.090 139.182 70.090 139.238 V 142.313 C 70.090 142.413 70.190 142.313 70.090 142.313 H 63.940 C 63.840 142.313 63.940 142.413 63.940 142.313 V 139.238 C 63.940 139.182 63.895 139.138 63.840 139.138 H 57.490 C 57.435 139.138 57.390 139.182 57.390 139.238 V 142.313 C 57.390 142.413 57.490 142.313 57.390 142.313 H 51.240 C 51.140 142.313 51.240 142.413 51.240 142.313 V 139.238 C 51.240 139.182 51.195 139.138 51.140 139.138 H 44.790 C 44.735 139.138 44.690 139.182 44.690 139.238 V 142.313 C 44.690 142.413 44.790 142.313 44.690 142.313 H 38.540 C 38.440 142.313 38.540 142.413 38.540 142.313 V 139.238 C 38.540 139.182 38.495 139.138 38.440 139.138 H 32.090 C 32.035 139.138 31.990 139.182 31.990 139.238 V 142.313 C 31.990 142.413 32.090 142.313 31.990 142.313 H 22.615 C 22.560 142.313 22.515 142.357 22.515 142.413 V 148.838 C 22.515 148.938 22.615 148.838 22.515 148.838 H 19.440 C 19.385 148.838 19.340 148.882 19.340 148.938 V 155.288 C 19.340 155.343 19.385 155.388 19.440 155.388 H 22.515 C 22.615 155.388 22.515 155.288 22.515 155.388 V 161.538 C 22.515 161.638 22.615 161.538 22.515 161.538 H 19.440 C 19.385 161.538 19.340 161.582 19.340 161.638 V 167.988 C 19.340 168.043 19.385 168.088 19.440 168.088 H 22.515 C 22.615 168.088 22.515 167.988 22.515 168.088 V 174.238 C 22.515 174.338 22.615 174.238 22.515 174.238 H 19.440 C 19.385 174.238 19.340 174.282 19.340 174.338 V 180.688 C 19.340 180.743 19.385 180.788 19.440 180.788 H 22.515 C 22.615 180.788 22.515 180.688 22.515 180.788 V 186.938 C 22.515 187.038 22.615 186.938 22.515 186.938 H 19.440 C 19.385 186.938 19.340 186.982 19.340 187.038 V 193.388 C 19.340 193.443 19.385 193.488 19.440 193.488 H 22.515 C 22.615 193.488 22.515 193.388 22.515 193.488 V 199.638 C 22.515 199.738 22.615 199.638 22.515 199.638 H 19.440 C 19.385 199.638 19.340 199.682 19.340 199.738 V 206.088 C 19.340 206.143 19.385 206.188 19.440 206.188 H 22.515 C 22.615 206.188 22.515 206.088 22.515 206.188 V 212.338 C 22.515 212.438 22.615 212.338 22.515 212.338 H 19.440 C 19.385 212.338 19.340 212.382 19.340 212.438 V 218.788 C 19.340 218.843 19.385 218.888 19.440 218.888 H 22.515 C 22.615 218.888 22.515 218.788 22.515 218.888 V 225.038 C 22.515 225.138 22.615 225.038 22.515 225.038 H 19.440 C 19.385 225.038 19.340 225.082 19.340 225.138 V 231.488 C 19.340 231.543 19.385 231.588 19.440 231.588 H 22.515 C 22.615 231.588 22.515 231.488 22.515 231.588 V 237.738 C 22.515 237.838 22.615 237.738 22.515 237.738 H 19.440 C 19.385 237.738 19.340 237.782 19.340 237.838 V 244.188 C 19.340 244.243 19.385 244.288 19.440 244.288 H 22.515 C 22.615 244.288 22.515 244.188 22.515 244.288 V 250.438 C 22.515 250.538 22.615 250.438 22.515 250.438 H 19.440 C 19.385 250.438 19.340 250.482 19.340 250.538 V 256.888 C 19.340 256.943 19.385 256.988 19.440 256.988 H 22.515 C 22.615 256.988 22.515 256.888 22.515 256.988 V 263.413 C 22.515 263.468 22.560 263.513 22.615 263.513 Z" stroke="rgb(0,0,0)" stroke-width="0.20" />
</g>
<g id="p-10" style="fill:none;stroke-linecap:round;stroke-linejoin:round;">
  <path d="M 22.615 134.375 H 31.990 C 32.090 134.375 31.990 134.275 31.990 134.375 V 137.450 C 31.990 137.505 32.035 137.550 32.090 137.550 H 38.440 C 38.495 137.550 38.540 137.505 38.540 137.450 V 134.375 C 38.540 134.275 38.440 134.375 38.540 134.375 H 44.690 C 44.790 134.375 44.690 134.275 44.690 134.375 V 137.450 C 44.690 137.505 44.735 137.550 44.790 137.550 H 51.140 C 51.195 137.550 51.240 137.505 51.240 137.450 V 134.375 C 51.240 134.275 51.140 134.375 51.240 134.375 H 57.390 C 57.490 134.375 57.390 134.275 57.390 134.375 V 137.450 C 57.390 137.505 57.435 137.550 57.490 137.550 H 63.840 C 63.895 137.550 63.940 137.505 63.940 137.450 V 134.375 C 63.940 134.275 63.840 134.375 63.940 134.375 H 70.090 C 70.190 134.375 70.090 134.275 70.090 134.375 V 137.450 C 70.090 137.505 70.135 137.550 70.190 137.550 H 76.540 C 76.595 137.550 76.640 137.505 76.640 137.450 V 134.375 C 76.640 134.275 76.540 134.375 76.640 134.375 H 82.790 C 82.890 134.375 82.790 134.275 82.790 134.375 V 137.450 C 82.790 137.505 82.835 137.550 82.890 137.550 H 89.240 C 89.295 137.550 89.340 137.505 89.340 137.450 V 134.375 C 89.340 134.275 89.240 134.375 89.340 134.375 H 95.490 C 95.590 134.375 95.490 134.275 95.490 134.375 V 137.450 C 95.490 137.505 95.535 137.550 95.590 137.550 H 101.940 C 101.995 137.550 102.040 137.505 102.040 137.450 V 134.375 C 102.040 134.275 101.940 134.375 102.040 134.375 H 108.190 C 108.290 134.375 108.190 134.275 108.190 134.375 V 137.450 C 108.190 137.505 108.235 137.550 108.290 137.550 H 114.640 C 114.695 137.550 114.740 137.505 114.740 137.450 V 134.375 C 114.740 134.275 114.640 134.375 114.740 134.375 H 120.890 C 120.990 134.375 120.890 134.275 120.890 134.375 V 137.450 C 120.890 137.505 120.935 137.550 120.990 137.550 H 127.340 C 127.395 137.550 127.440 137.505 127.440 137.450 V 134.375 C 127.440 134.275 127.340 134.375 127.440 134.375 H 133.590 C 133.690 134.375 133.590 134.275 133.590 134.375 V 137.450 C 133.590 137.505 133.635 137.550 133.690 137.550 H 140.040 C 140.095 137.550 140.140 137.505 140.140 137.450 V 134.375 C 140.140 134.275 140.040 134.375 140.140 134.375 H 146.290 C 146.390 134.375 146.290 134.275 146.290 134.375 V 137.450 C 146.290 137.505 146.335 137.550 146.390 137.550 H 152.740 C 152.795 137.550 152.840 137.505 152.840 137.450 V 134.375 C 152.840 134.275 152.740 134.375 152.840 134.375 H 158.990 C 159.090 134.375 158.990 134.275 158.990 134.375 V 137.450 C 158.990 137.505 159.035 137.550 159.090 137.550 H 165.440 C 165.495 137.550 165.540 137.505 165.540 137.450 V 134.375 C 165.540 134.275 165.440 134.375 165.540 134.375 H 171.690 C 171.790 134.375 171.690 134.275 171.690 134.375 V 137.450 C 171.690 137.505 171.735 137.550 171.790 137.550 H 178.140 C 178.195 137.550 178.240 137.505 178.240 137.450 V 134.375 C 178.240 134.275 178.140 134.375 178.240 134.375 H 187.615 C 187.670 134.375 187.715 134.330 187.715 134.275 V 127.850 C 187.715 127.750 187.615 127.850 187.715 127.850 H 190.790 C 190.845 127.850 190.890 127.805 190.890 127.750 V 121.400 C 190.890 121.345 190.845 121.300 190.790 121.300 H 187.715 C 187.615 121.300 187.715 121.400 187.715 121.300 V 115.150 C 187.715 115.050 187.615 115.150 187.715 115.150 H 190.790 C 190.845 115.150 190.890 115.105 190.890 115.050 V 108.700 C 190.890 108.645 190.845 108.600 190.790 108.600 H 187.715 C 187.615 108.600 187.715 108.700 187.715 108.600 V 102.450 C 187.715 102.350 187.615 102.450 187.715 102.450 H 190.790 C 190.845 102.450 190.890 102.405 190.890 102.350 V 96.000 C 190.890 95.945 190.845 95.900 190.790 95.900 H 187.715 C 187.615 95.900 187.715 96.000 187.715 95.900 V 89.750 C 187.715 89.650 187.615 89.750 187.715 89.750 H 190.790 C 190.845 89.750 190.890 89.705 190.890 89.650 V 83.300 C 190.890 83.245 190.845 83.200 190.790 83.200 H 187.715 C 187.615 83.200 187.715 83.300 187.715 83.200 V 77.050 C 187.715 76.950 187.615 77.050 187.715 77.050 H 190.790 C 190.845 77.050 190.890 77.005 190.890 76.950 V 70.600 C 190.890 70.545 190.845 70.500 190.790 70.500 H 187.715 C 187.615 70.500 187.715 70.600 187.715 70.500 V 64.350 C 187.715 64.250 187.615 64.350 187.715 64.350 H 190.790 C 190.845 64.350 190.890 64.305 190.890 64.250 V 57.900 C 190.890 57.845 190.845 57.800 190.790 57.800 H 187.715 C 187.615 57.800 187.715 57.900 187.715 57.800 V 51.650 C 187.715 51.550 187.615 51.650 187.715 51.650 H 190.790 C 190.845 51.650 190.890 51.605 190.890 51.550 V 45.200 C 190.890 45.145 190.845 45.100 190.790 45.100 H 187.715 C 187.615 45.100 187.715 45.200 187.715 45.100 V 38.950 C 187.715 38.850 187.615 38.950 187.715 38.950 H 190.790 C 190.845 38.950 190.890 38.905 190.890 38.850 V 32.500 C 190.890 32.445 190.845 32.400 190.790 32.400 H 187.715 C 187.615 32.400 187.715 32.500 187.715 32.400 V 26.250 C 187.715 26.150 187.615 26.250 187.715 26.250 H 190.790 C 190.845 26.250 190.890 26.205 190.890 26.150 V 19.800 C 190.890 19.745 190.845 19.700 190.790 19.700 H 187.715 C 187.615 19.700 187.715 19.800 187.715 19.700 V 13.275 C 187.715 13.220 187.670 13.175 187.615 13.175 H 178.240 C 178.140 13.175 178.240 13.275 178.240 13.175 V 10.100 C 178.240 10.045 178.195 10.000 178.140 10.000 H 171.790 C 171.735 10.000 171.690 10.045 171.690 10.100 V 13.175 C 171.690 13.275 171.790 13.175 171.690 13.175 H 165.540 C 165.440 13.175 165.540 13.275 165.540 13.175 V 10.100 C 165.540 10.045 165.495 10.000 165.440 10.000 H 159.090 C 159.035 10.000 158.990 10.045 158.990 10.100 V 13.175 C 158.990 13.275 159.090 13.175 158.990 13.175 H 152.840 C 152.740 13.175 152.840 13.275 152.840 13.175 V 10.100 C 152.840 10.045 152.795 10.000 152.740 10.000 H 146.390 C 146.335 10.000 146.290 10.045 146.290 10.100 V 13.175 C 146.290 13.275 146.390 13.175 146.290 13.175 H 140.140 C 140.040 13.175 140.140 13.275 140.140 13.175 V 10.100 C 140.140 10.045 140.095 10.000 140.040 10.000 H 133.690 C 133.635 10.000 133.590 10.045 133.590 10.100 V 13.175 C 133.590 13.275 133.690 13.175 133.590 13.175 H 127.440 C 127.340 13.175 127.440 13.275 127.440 13.175 V 10.100 C 127.440 10.045 127.395 10.000 127.340 10.000 H 120.990 C 120.935 10.000 120.890 10.045 120.890 10.100 V 13.175 C 120.890 13.275 120.990 13.175 120.890 13.175 H 114.740 C 114.640 13.175 114.740 13.275 114.740 13.175 V 10.100 C 114.740 10.045 114.695 10.000 114.640 10.000 H 108.290 C 108.235 10.000 108.190 10.045 108.190 10.100 V 13.175 C 108.190 13.275 108.290 13.175 108.190 13.175 H 102.040 C 101.940 13.175 102.040 13.275 102.040 13.175 V 10.100 C 102.040 10.045 101.995 10.000 101.940 10.000 H 95.590 C 95.535 10.000 95.490 10.045 95.490 10.100 V 13.175 C 95.490 13.275 95.590 13.175 95.490 13.175 H 89.340 C 89.240 13.175 89.340 13.275 89.340 13.175 V 10.100 C 89.340 10.045 89.295 10.000 89.240 10.000 H 82.890 C 82.835 10.000 82.790 10.045 82.790 10.100 V 13.175 C 82.790 13.275 82.890 13.175 82.790 13.175 H 76.640 C 76.540 13.175 76.640 13.275 76.640 13.175 V 10.100 C 76.640 10.045 76.595 10.000 76.540 10.000 H 70.190 C 70.135 10.000 70.090 10.045 70.090 10.100 V 13.175 C 70.090 13.275 70.190 13.175 70.090 13.175 H 63.940 C 63.840 13.175 63.940 13.275 63.940 13.175 V 10.100 C 63.940 10.045 63.895 10.000 63.840 10.000 H 57.490 C 57.435 10.000 57.390 10.045 57.390 10.100 V 13.175 C 57.390 13.275 57.490 13.175 57.390 13.175 H 51.240 C 51.140 13.175 51.240 13.275 51.240 13.175 V 10.100 C 51.240 10.045 51.195 10.000 51.140 10.000 H 44.790 C 44.735 10.000 44.690 10.045 44.690 10.100 V 13.175 C 44.690 13.275 44.790 13.175 44.690 13.175 H 38.540 C 38.440 13.175 38.540 13.275 38.540 13.175 V 10.100 C 38.540 10.045 38.495 10.000 38.440 10.000 H 32.090 C 32.035 10.000 31.990 10.045 31.990 10.100 V 13.175 C 31.990 13.275 32.090 13.175 31.990 13.175 H 22.615 C 22.560 13.175 22.515 13.220 22.515 13.275 V 19.700 C 22.515 19.800 22.615 19.700 22.515 19.700 H 19.440 C 19.385 19.700 19.340 19.745 19.340 19.800 V 26.150 C 19.340 26.205 19.385 26.250 19.440 26.250 H 22.515 C 22.615 26.250 22.515 26.150 22.515 26.250 V 32.400 C 22.515 32.500 22.615 32.400 22.515 32.400 H 19.440 C 19.385 32.400 19.340 32.445 19.340 32.500 V 38.850 C 19.340 38.905 19.385 38.950 19.440 38.950 H 22.515 C 22.615 38.950 22.515 38.850 22.515 38.950 V 45.100 C 22.515 45.200 22.615 45.100 22.515 45.100 H 19.440 C 19.385 45.100 19.340 45.145 19.340 45.200 V 51.550 C 19.340 51.605 19.385 51.650 19.440 51.650 H 22.515 C 22.615 51.650 22.515 51.550 22.515 51.650 V 57.800 C 22.515 57.900 22.615 57.800 22.515 57.800 H 19.440 C 19.385 57.800 19.340 57.845 19.340 57.900 V 64.250 C 19.340 64.305 19.385 64.350 19.440 64.350 H 22.515 C 22.615 64.350 22.515 64.250 22.515 64.350 V 70.500 C 22.515 70.600 22.615 70.500 22.515 70.500 H 19.440 C 19.385 70.500 19.340 70.545 19.340 70.600 V 76.950 C 19.340 77.005 19.385 77.050 19.440 77.050 H 22.515 C 22.615 77.050 22.515 76.950 22.515 77.050 V 83.200 C 22.515 83.300 22.615 83.200 22.515 83.200 H 19.440 C 19.385 83.200 19.340 83.245 19.340 83.300 V 89.650 C 19.340 89.705 19.385 89.750 19.440 89.750 H 22.515 C 22.615 89.750 22.515 89.650 22.515 89.750 V 95.900 C 22.515 96.000 22.615 95.900 22.515 95.900 H 19.440 C 19.385 95.900 19.340 95.945 19.340 96.000 V 102.350 C 19.340 102.405 19.385 102.450 19.440 102.450 H 22.515 C 22.615 102.450 22.515 102.350 22.515 102.450 V 108.600 C 22.515 108.700 22.615 108.600 22.515 108.600 H 19.440 C 19.385 108.600 19.340 108.645 19.340 108.700 V 115.050 C 19.340 115.105 19.385 115.150 19.440 115.150 H 22.515 C 22.615 115.150 22.515 115.050 22.515 115.150 V 121.300 C 22.515 121.400 22.615 121.300 22.515 121.300 H 19.440 C 19.385 121.300 19.340 121.345 19.340 121.400 V 127.750 C 19.340 127.805 19.385 127.850 19.440 127.850 H 22.515 C 22.615 127.850 22.515 127.750 22.515 127.850 V 134.275 C 22.515 134.330 22.560 134.375 22.615 134.375 Z" stroke="rgb(0,0,0)" stroke-width="0.20" />
</g>
</svg>